<?xml version="1.0" encoding="UTF-8"?>
<svg width="40px" height="40px" viewBox="0 0 40 40" version="1.1" xmlns="http://www.w3.org/2000/svg" xmlns:xlink="http://www.w3.org/1999/xlink">
    <title>MediumIcon</title>
    <g id="MediumIcon" stroke="none" stroke-width="1" fill="none" fill-rule="evenodd">
        <path d="M38,3 L38,38 L2,38 L2,3 L38,3 Z M15.2222222,14 C11.7857838,14 9,16.9101491 9,20.5 C9,24.0898509 11.7857838,27 15.2222222,27 C18.6586607,27 21.4444444,24.0898509 21.4444444,20.5 C21.4444444,16.9101491 18.6586607,14 15.2222222,14 Z M25.1111111,14.3482143 C23.3315269,14.3482143 21.8888889,17.1024626 21.8888889,20.5 C21.8888889,23.8975374 23.3315269,26.6517857 25.1111111,26.6517857 C26.8906953,26.6517857 28.3333333,23.8975374 28.3333333,20.5 C28.3333333,17.1024626 26.8906953,14.3482143 25.1111111,14.3482143 Z M30.0222222,14.9285714 C29.3472075,14.9285714 28.8,17.422985 28.8,20.5 C28.8,23.577015 29.3472075,26.0714286 30.0222222,26.0714286 C30.6972369,26.0714286 31.2444444,23.577015 31.2444444,20.5 C31.2444444,17.422985 30.6972369,14.9285714 30.0222222,14.9285714 Z" id="Combined-Shape" fill="#000000"></path>
    </g>
</svg>