<?xml version="1.0" encoding="UTF-8"?>
<svg width="516px" height="516px" viewBox="0 0 516 516" version="1.1" xmlns="http://www.w3.org/2000/svg" xmlns:xlink="http://www.w3.org/1999/xlink">
    <title>ListsEmpty</title>
    <g id="ListsEmpty" stroke="none" stroke-width="1" fill="none" fill-rule="evenodd">
        <rect id="Rectangle-Copy-4" stroke="#00AEEF" stroke-width="5" fill-opacity="0.5" fill="#00AEEF" x="28" y="75" width="243" height="162" rx="24"></rect>
        <rect id="Rectangle-Copy-6" stroke="#6555FF" stroke-width="5" fill-opacity="0.5" fill="#6555FF" x="68" y="289" width="243" height="162" rx="24"></rect>
        <rect id="Rectangle-Copy-5" stroke="#005EDC" stroke-width="5" fill-opacity="0.5" fill="#005EDC" x="245" y="177" width="243" height="162" rx="24"></rect>
        <path d="M399.609375,133.078125 C401.40625,131.710938 401.796875,129.445312 400.742187,126.359375 L392.734375,102.492188 L413.242187,87.765625 C415.859375,85.890625 416.992187,83.8203125 416.25,81.6328125 C415.507812,79.484375 413.4375,78.4296875 410.195312,78.46875 L385.039062,78.625 L377.382812,54.640625 C376.40625,51.515625 374.804687,49.8359375 372.5,49.8359375 C370.234375,49.8359375 368.632812,51.515625 367.617187,54.640625 L359.960937,78.625 L334.804687,78.46875 C331.5625,78.4296875 329.53125,79.484375 328.789062,81.6328125 C328.046875,83.8203125 329.140625,85.890625 331.796875,87.765625 L352.304687,102.492188 L344.257812,126.359375 C343.203125,129.445312 343.59375,131.710938 345.429687,133.078125 C347.265625,134.484375 349.53125,134.015625 352.1875,132.101562 L372.5,117.179688 L392.8125,132.101562 C395.46875,134.015625 397.773437,134.484375 399.609375,133.078125 Z" id="􀋃" fill="#005EDC" fill-rule="nonzero"></path>
        <path d="M390.507812,397.976562 C393.515625,397.976562 395.976562,395.515625 395.976562,392.46875 C395.976562,389.460938 393.515625,387 390.507812,387 C387.460938,387 385,389.460938 385,392.46875 C385,395.515625 387.460938,397.976562 390.507812,397.976562 Z M461.835938,396.179688 C463.90625,396.179688 465.546875,394.539062 465.546875,392.46875 C465.546875,390.398438 463.90625,388.757812 461.835938,388.757812 L408.75,388.757812 C406.679688,388.757812 405.039062,390.398438 405.039062,392.46875 C405.039062,394.539062 406.679688,396.179688 408.75,396.179688 L461.835938,396.179688 Z M390.507812,421.960938 C393.515625,421.960938 395.976562,419.5 395.976562,416.453125 C395.976562,413.445312 393.515625,410.984375 390.507812,410.984375 C387.460938,410.984375 385,413.445312 385,416.453125 C385,419.5 387.460938,421.960938 390.507812,421.960938 Z M461.835938,420.164062 C463.90625,420.164062 465.546875,418.523438 465.546875,416.453125 C465.546875,414.382812 463.90625,412.742188 461.835938,412.742188 L408.75,412.742188 C406.679688,412.742188 405.039062,414.382812 405.039062,416.453125 C405.039062,418.523438 406.679688,420.164062 408.75,420.164062 L461.835938,420.164062 Z M390.507812,445.945312 C393.515625,445.945312 395.976562,443.484375 395.976562,440.4375 C395.976562,437.429688 393.515625,434.96875 390.507812,434.96875 C387.460938,434.96875 385,437.429688 385,440.4375 C385,443.484375 387.460938,445.945312 390.507812,445.945312 Z M461.835938,444.148438 C463.90625,444.148438 465.546875,442.507812 465.546875,440.4375 C465.546875,438.367188 463.90625,436.726562 461.835938,436.726562 L408.75,436.726562 C406.679688,436.726562 405.039062,438.367188 405.039062,440.4375 C405.039062,442.507812 406.679688,444.148438 408.75,444.148438 L461.835938,444.148438 Z" id="􀋲" fill="#00AEEF" fill-rule="nonzero"></path>
    </g>
</svg>