<svg fill="none" height="100" viewBox="0 0 100 100" width="100" xmlns="http://www.w3.org/2000/svg" xmlns:xlink="http://www.w3.org/1999/xlink"><clipPath id="a"><path d="m0 0h100v100h-100z"/></clipPath><g clip-path="url(#a)" fill="#fff"><path d="m6.81818 87.0209h15.90912v-38.6363l-22.7273-17.0455v48.8636c0 3.7728 3.05682 6.8182 6.81818 6.8182z" opacity=".6"/><path d="m77.2727 87.0209h15.9091c3.7727 0 6.8182-3.0568 6.8182-6.8182v-48.8636l-22.7273 17.0455" opacity=".6"/><path d="m77.2727 18.839v29.5454l22.7273-17.0454v-9.0909c0-8.4318-9.625-13.23866-16.3637-8.1818" opacity=".8"/><path d="m22.7273 48.3846v-29.5455l27.2727 20.4546 27.2727-20.4546v29.5455l-27.2727 20.4545"/><path d="m0 22.2481v9.0909l22.7273 17.0454v-29.5454l-6.3637-4.7727c-6.74996-5.05686-16.3636-.25-16.3636 8.1818" opacity=".8"/></g></svg>