<?xml version="1.0" encoding="UTF-8"?>
<svg width="128px" height="128px" viewBox="0 0 128 128" version="1.1" xmlns="http://www.w3.org/2000/svg" xmlns:xlink="http://www.w3.org/1999/xlink">
    <title>CacheFill</title>
    <g id="CacheFill" stroke="none" stroke-width="1" fill="none" fill-rule="evenodd" stroke-opacity="0.5">
        <path d="M67.7032564,22.5 C76.4191201,22.5 81.8129274,23.632243 86.4240824,25.7901854 L86.4240824,25.7901854 L77.7030253,38.078299 C75.088036,37.0487831 71.9202151,36.5 66.835449,36.5 L66.835449,36.5 L61.164551,36.5 C54.686356,36.5 51.3165981,37.3889126 48.2414952,39.0334957 C45.1340788,40.6953602 42.6953602,43.1340788 41.0334957,46.2414952 C39.4326126,49.2348863 38.5479241,52.5074604 38.5018856,58.653899 L38.5018856,58.653899 L38.5,59.164551 L38.5,68.835449 C38.5,75.313644 39.3889126,78.6834019 41.0334957,81.7585048 C42.6953602,84.8659212 45.1340788,87.3046398 48.2414952,88.9665043 C51.2348863,90.5673874 54.5074604,91.4520759 60.653899,91.4981144 L60.653899,91.4981144 L61.164551,91.5 L66.835449,91.5 C73.313644,91.5 76.6834019,90.6110874 79.7585048,88.9665043 C82.8659212,87.3046398 85.3046398,84.8659212 86.9665043,81.7585048 C88.5673874,78.7651137 89.4520759,75.4925396 89.4981144,69.346101 L89.4981144,69.346101 L89.5,68.835449 L89.5,65.5234008 L102.601647,47.0635349 C103.195757,50.151928 103.5,53.7789807 103.5,58.2967436 L103.5,58.2967436 L103.5,69.7032564 C103.5,79.4093641 102.095098,84.9949266 99.4350896,89.9687096 C96.7914199,94.9119421 92.9119421,98.7914199 87.9687096,101.43509 C82.9949266,104.095098 77.4093641,105.5 67.7032564,105.5 L67.7032564,105.5 L60.2967436,105.5 C50.5906359,105.5 45.0050734,104.095098 40.0312904,101.43509 C35.0880579,98.7914199 31.2085801,94.9119421 28.5649104,89.9687096 C25.9049022,84.9949266 24.5,79.4093641 24.5,69.7032564 L24.5,69.7032564 L24.5,58.2967436 C24.5,48.5906359 25.9049022,43.0050734 28.5649104,38.0312904 C31.2085801,33.0880579 35.0880579,29.2085801 40.0312904,26.5649104 C45.0050734,23.9049022 50.5906359,22.5 60.2967436,22.5 L60.2967436,22.5 Z" id="Combined-Shape" stroke="#000000" fill="#FFFFFF"></path>
        <path d="M93.150465,31.7664283 C94.5771825,31.514955 96.0991095,31.8036464 97.3836336,32.6911288 C98.6444792,33.5622515 99.4328684,34.8619639 99.6882655,36.2591069 C99.9436626,37.6562499 99.6660676,39.1508236 98.7985761,40.4064838 L98.7985761,40.4064838 L69.4260047,81.7894548 C68.4454183,83.1709735 66.9610923,83.9854619 65.3980261,84.158174 C64.3735205,84.3466693 63.3509255,84.2654081 62.4042771,83.9293479 C61.4900245,83.6047882 60.6467643,83.0423018 59.9736479,82.2508565 L59.9736479,82.2508565 L46.1475353,65.9942155 C45.1565555,64.8290288 44.7316769,63.3724762 44.8458399,61.9594753 C44.9600029,60.5464745 45.6132076,59.1770253 46.7733677,58.1902641 C48.001728,57.1730343 49.5028664,56.7391827 50.9508285,56.8564223 C52.4032056,56.9740195 53.8013167,57.646074 54.8140218,58.8368052 L54.8140218,58.8368052 L64.1373545,69.7989557 L89.488553,34.082716 C90.3922393,32.8095396 91.7237474,32.0179016 93.150465,31.7664283 Z" id="Combined-Shape" stroke="#000000" fill="#00AEEF"></path>
    </g>
</svg>