<svg width="100" height="100" viewBox="0 0 100 100" fill="none" xmlns="http://www.w3.org/2000/svg">
<path fill-rule="evenodd" clip-rule="evenodd" d="M22.68 0C14.5749 0 10.5224 0 7.44898 1.62728C4.96878 2.94048 2.94048 4.96878 1.62728 7.44898C0 10.5224 0 14.5749 0 22.68V25H5V22.68C5 18.5421 5.00415 15.7495 5.1857 13.5981C5.36208 11.508 5.6787 10.4826 6.04611 9.78863C6.89031 8.19421 8.19421 6.89031 9.78863 6.04611C10.4826 5.6787 11.508 5.36208 13.5981 5.1857C15.7495 5.00415 18.5421 5 22.68 5H25V0H22.68ZM75 0V5H77.32C81.4579 5 84.2505 5.00415 86.4019 5.1857C88.492 5.36208 89.5174 5.6787 90.2114 6.04611C91.8058 6.89031 93.1097 8.19421 93.9539 9.78863C94.3213 10.4826 94.6379 11.508 94.8143 13.5981C94.9958 15.7495 95 18.5421 95 22.68V25H100V22.68C100 14.5749 100 10.5224 98.3727 7.44898C97.0595 4.96878 95.0312 2.94048 92.551 1.62728C89.4776 0 85.4251 0 77.32 0H75ZM100 75H95V77.32C95 81.4579 94.9958 84.2505 94.8143 86.4019C94.6379 88.492 94.3213 89.5174 93.9539 90.2114C93.1097 91.8058 91.8058 93.1097 90.2114 93.9539C89.5174 94.3213 88.492 94.6379 86.4019 94.8143C84.2505 94.9958 81.4579 95 77.32 95H75V100H77.32C85.4251 100 89.4776 100 92.551 98.3727C95.0312 97.0595 97.0595 95.0312 98.3727 92.551C100 89.4776 100 85.4251 100 77.32V75ZM25 100V95H22.68C18.5421 95 15.7495 94.9958 13.5981 94.8143C11.508 94.6379 10.4826 94.3213 9.78863 93.9539C8.19421 93.1097 6.89031 91.8058 6.04611 90.2114C5.6787 89.5174 5.36208 88.492 5.1857 86.4019C5.00415 84.2505 5 81.4579 5 77.32V75H0V77.32C0 85.4251 0 89.4776 1.62728 92.551C2.94048 95.0312 4.96878 97.0595 7.44898 98.3727C10.5224 100 14.5749 100 22.68 100H25Z" fill="white"/>
</svg>
