<?xml version="1.0" encoding="UTF-8"?>
<svg width="30px" height="30px" viewBox="0 0 30 30" version="1.1" xmlns="http://www.w3.org/2000/svg" xmlns:xlink="http://www.w3.org/1999/xlink">
    <title>Page5</title>
    <g id="Page5" stroke="none" stroke-width="1" fill="none" fill-rule="evenodd">
        <path d="M15.4178674,22 C18.1066282,22 20,20.3394683 20,17.9427403 L20,17.9263804 C20,15.6687117 18.2795389,14.0408998 15.8933718,14.0408998 C14.6657061,14.0408998 13.6282421,14.4907975 13.0662824,15.2842536 L13.0230548,15.2842536 L13.4034582,11.5460123 L19.2737752,11.5460123 L19.2737752,10 L11.8386167,10 L11.2247839,16.805726 L12.9193084,16.805726 C13.0835735,16.5439673 13.2824207,16.3149284 13.5158501,16.1267894 C14.0172911,15.7014315 14.6829971,15.4887526 15.4524496,15.4887526 C17,15.4887526 18.0979827,16.5112474 18.1066282,17.9591002 L18.1066282,17.9754601 C18.1066282,19.4396728 17.0086455,20.4703476 15.4351585,20.4703476 C14.0432277,20.4703476 13.0230548,19.6523517 12.8587896,18.5889571 L12.8501441,18.5235174 L11,18.5235174 L11.0086455,18.6216769 C11.1815562,20.5685072 12.9193084,22 15.4178674,22 Z" id="5" fill="#FFFFFF" fill-rule="nonzero"></path>
    </g>
</svg>