<?xml version="1.0" encoding="UTF-8"?>
<svg width="32px" height="32px" viewBox="0 0 32 32" version="1.1" xmlns="http://www.w3.org/2000/svg" xmlns:xlink="http://www.w3.org/1999/xlink">
    <title>gear</title>
    <g id="gear" stroke="none" stroke-width="1" fill="none" fill-rule="evenodd">
        <path d="M17.03125,24.625 C17.5,24.625 17.8515625,24.34375 17.953125,23.8828125 L18.34375,22.234375 C18.609375,22.140625 18.859375,22.0390625 19.09375,21.9296875 L20.5390625,22.8203125 C20.921875,23.0625 21.3828125,23.0234375 21.703125,22.703125 L22.7109375,21.6953125 C23.03125,21.375 23.078125,20.8984375 22.8203125,20.5078125 L21.9375,19.078125 C22.046875,18.84375 22.1484375,18.59375 22.2265625,18.3515625 L23.890625,17.9609375 C24.3515625,17.859375 24.625,17.5078125 24.625,17.0390625 L24.625,15.6328125 C24.625,15.171875 24.3515625,14.8125 23.890625,14.7109375 L22.2421875,14.3125 C22.15625,14.0390625 22.046875,13.796875 21.953125,13.5859375 L22.8359375,12.125 C23.0859375,11.7265625 23.0546875,11.28125 22.71875,10.953125 L21.703125,9.9453125 C21.375,9.6484375 20.9609375,9.59375 20.5625,9.8125 L19.09375,10.71875 C18.8671875,10.609375 18.6171875,10.5078125 18.3515625,10.4140625 L17.953125,8.7421875 C17.8515625,8.28125 17.5,8 17.03125,8 L15.6015625,8 C15.125,8 14.7734375,8.28125 14.671875,8.7421875 L14.28125,10.40625 C14.015625,10.4921875 13.7578125,10.59375 13.5234375,10.7109375 L12.0625,9.8125 C11.6640625,9.59375 11.2578125,9.640625 10.921875,9.9453125 L9.90625,10.953125 C9.5703125,11.28125 9.5390625,11.7265625 9.7890625,12.125 L10.671875,13.5859375 C10.578125,13.796875 10.4765625,14.0390625 10.3828125,14.3125 L8.734375,14.7109375 C8.2734375,14.8125 8,15.171875 8,15.6328125 L8,17.0390625 C8,17.5078125 8.2734375,17.859375 8.734375,17.9609375 L10.3984375,18.3515625 C10.4765625,18.59375 10.578125,18.84375 10.6875,19.078125 L9.8046875,20.5078125 C9.546875,20.8984375 9.59375,21.375 9.921875,21.6953125 L10.921875,22.703125 C11.2421875,23.0234375 11.703125,23.0625 12.09375,22.8203125 L13.53125,21.9296875 C13.765625,22.0390625 14.015625,22.140625 14.28125,22.234375 L14.671875,23.8828125 C14.7734375,24.34375 15.125,24.625 15.6015625,24.625 L17.03125,24.625 Z M16.3125,19.046875 C14.8125,19.046875 13.5859375,17.8125 13.5859375,16.3046875 C13.5859375,14.8125 14.8125,13.5859375 16.3125,13.5859375 C17.8203125,13.5859375 19.046875,14.8125 19.046875,16.3046875 C19.046875,17.8125 17.8203125,19.046875 16.3125,19.046875 Z" id="􀣌" fill="#000000" fill-rule="nonzero"></path>
    </g>
</svg>