<svg height="580" viewBox="0 0 580 580" width="580" xmlns="http://www.w3.org/2000/svg"><g fill="none" fill-rule="evenodd"><g fill="#000" fill-rule="nonzero"><path d="m200 40h20v20h-20z"/><path d="m280 40h20v20h-20z"/><path d="m320 40h20v20h-20z"/><path d="m360 40h20v20h-20z"/><path d="m200 60h20v20h-20z"/><path d="m220 60h20v20h-20z"/><path d="m240 60h20v20h-20z"/><path d="m320 60h20v20h-20z"/><path d="m360 60h20v20h-20z"/><path d="m220 80h20v20h-20z"/><path d="m280 80h20v20h-20z"/><path d="m300 80h20v20h-20z"/><path d="m360 80h20v20h-20z"/><path d="m200 100h20v20h-20z"/><path d="m240 100h20v20h-20z"/><path d="m280 100h20v20h-20z"/><path d="m300 100h20v20h-20z"/><path d="m320 100h20v20h-20z"/><path d="m340 100h20v20h-20z"/><path d="m220 120h20v20h-20z"/><path d="m240 120h20v20h-20z"/><path d="m260 120h20v20h-20z"/><path d="m340 120h20v20h-20z"/><path d="m360 120h20v20h-20z"/><path d="m260 140h20v20h-20z"/><path d="m280 140h20v20h-20z"/><path d="m300 140h20v20h-20z"/><path d="m360 140h20v20h-20z"/><path d="m200 160h20v20h-20z"/><path d="m240 160h20v20h-20z"/><path d="m280 160h20v20h-20z"/><path d="m320 160h20v20h-20z"/><path d="m360 160h20v20h-20z"/><path d="m200 180h20v20h-20z"/><path d="m320 180h20v20h-20z"/><path d="m340 180h20v20h-20z"/><path d="m360 180h20v20h-20z"/><path d="m40 200h20v20h-20z"/><path d="m80 200h20v20h-20z"/><path d="m100 200h20v20h-20z"/><path d="m140 200h20v20h-20z"/><path d="m160 200h20v20h-20z"/><path d="m180 200h20v20h-20z"/><path d="m260 200h20v20h-20z"/><path d="m280 200h20v20h-20z"/><path d="m300 200h20v20h-20z"/><path d="m340 200h20v20h-20z"/><path d="m360 200h20v20h-20z"/><path d="m400 200h20v20h-20z"/><path d="m460 200h20v20h-20z"/><path d="m500 200h20v20h-20z"/><path d="m520 200h20v20h-20z"/><path d="m120 220h20v20h-20z"/><path d="m140 220h20v20h-20z"/><path d="m180 220h20v20h-20z"/><path d="m220 220h20v20h-20z"/><path d="m240 220h20v20h-20z"/><path d="m260 220h20v20h-20z"/><path d="m280 220h20v20h-20z"/><path d="m300 220h20v20h-20z"/><path d="m420 220h20v20h-20z"/><path d="m500 220h20v20h-20z"/><path d="m40 240h20v20h-20z"/><path d="m60 240h20v20h-20z"/><path d="m100 240h20v20h-20z"/><path d="m120 240h20v20h-20z"/><path d="m160 240h20v20h-20z"/><path d="m180 240h20v20h-20z"/><path d="m220 240h20v20h-20z"/><path d="m260 240h20v20h-20z"/><path d="m300 240h20v20h-20z"/><path d="m420 240h20v20h-20z"/><path d="m60 260h20v20h-20z"/><path d="m80 260h20v20h-20z"/><path d="m140 260h20v20h-20z"/><path d="m220 260h20v20h-20z"/><path d="m280 260h20v20h-20z"/><path d="m380 260h20v20h-20z"/><path d="m460 260h20v20h-20z"/><path d="m480 260h20v20h-20z"/><path d="m40 280h20v20h-20z"/><path d="m60 280h20v20h-20z"/><path d="m100 280h20v20h-20z"/><path d="m140 280h20v20h-20z"/><path d="m160 280h20v20h-20z"/><path d="m200 280h20v20h-20z"/><path d="m240 280h20v20h-20z"/><path d="m280 280h20v20h-20z"/><path d="m320 280h20v20h-20z"/><path d="m340 280h20v20h-20z"/><path d="m380 280h20v20h-20z"/><path d="m400 280h20v20h-20z"/><path d="m440 280h20v20h-20z"/><path d="m480 280h20v20h-20z"/><path d="m500 280h20v20h-20z"/><path d="m520 280h20v20h-20z"/><path d="m60 300h20v20h-20z"/><path d="m80 300h20v20h-20z"/><path d="m140 300h20v20h-20z"/><path d="m240 300h20v20h-20z"/><path d="m260 300h20v20h-20z"/><path d="m280 300h20v20h-20z"/><path d="m320 300h20v20h-20z"/><path d="m340 300h20v20h-20z"/><path d="m360 300h20v20h-20z"/><path d="m400 300h20v20h-20z"/><path d="m420 300h20v20h-20z"/><path d="m440 300h20v20h-20z"/><path d="m520 300h20v20h-20z"/><path d="m60 320h20v20h-20z"/><path d="m80 320h20v20h-20z"/><path d="m100 320h20v20h-20z"/><path d="m120 320h20v20h-20z"/><path d="m140 320h20v20h-20z"/><path d="m160 320h20v20h-20z"/><path d="m180 320h20v20h-20z"/><path d="m220 320h20v20h-20z"/><path d="m260 320h20v20h-20z"/><path d="m300 320h20v20h-20z"/><path d="m360 320h20v20h-20z"/><path d="m380 320h20v20h-20z"/><path d="m440 320h20v20h-20z"/><path d="m480 320h20v20h-20z"/><path d="m500 320h20v20h-20z"/><path d="m40 340h20v20h-20z"/><path d="m120 340h20v20h-20z"/><path d="m140 340h20v20h-20z"/><path d="m220 340h20v20h-20z"/><path d="m240 340h20v20h-20z"/><path d="m260 340h20v20h-20z"/><path d="m320 340h20v20h-20z"/><path d="m360 340h20v20h-20z"/><path d="m400 340h20v20h-20z"/><path d="m420 340h20v20h-20z"/><path d="m440 340h20v20h-20z"/><path d="m520 340h20v20h-20z"/><path d="m80 360h20v20h-20z"/><path d="m120 360h20v20h-20z"/><path d="m140 360h20v20h-20z"/><path d="m160 360h20v20h-20z"/><path d="m180 360h20v20h-20z"/><path d="m220 360h20v20h-20z"/><path d="m280 360h20v20h-20z"/><path d="m320 360h20v20h-20z"/><path d="m340 360h20v20h-20z"/><path d="m360 360h20v20h-20z"/><path d="m380 360h20v20h-20z"/><path d="m400 360h20v20h-20z"/><path d="m420 360h20v20h-20z"/><path d="m440 360h20v20h-20z"/><path d="m460 360h20v20h-20z"/><path d="m480 360h20v20h-20z"/><path d="m500 360h20v20h-20z"/><path d="m520 360h20v20h-20z"/><path d="m200 380h20v20h-20z"/><path d="m320 380h20v20h-20z"/><path d="m360 380h20v20h-20z"/><path d="m440 380h20v20h-20z"/><path d="m480 380h20v20h-20z"/><path d="m520 380h20v20h-20z"/><path d="m200 400h20v20h-20z"/><path d="m300 400h20v20h-20z"/><path d="m320 400h20v20h-20z"/><path d="m360 400h20v20h-20z"/><path d="m400 400h20v20h-20z"/><path d="m440 400h20v20h-20z"/><path d="m480 400h20v20h-20z"/><path d="m500 400h20v20h-20z"/><path d="m520 400h20v20h-20z"/><path d="m200 420h20v20h-20z"/><path d="m260 420h20v20h-20z"/><path d="m300 420h20v20h-20z"/><path d="m320 420h20v20h-20z"/><path d="m340 420h20v20h-20z"/><path d="m360 420h20v20h-20z"/><path d="m440 420h20v20h-20z"/><path d="m520 420h20v20h-20z"/><path d="m220 440h20v20h-20z"/><path d="m240 440h20v20h-20z"/><path d="m300 440h20v20h-20z"/><path d="m320 440h20v20h-20z"/><path d="m360 440h20v20h-20z"/><path d="m380 440h20v20h-20z"/><path d="m400 440h20v20h-20z"/><path d="m420 440h20v20h-20z"/><path d="m440 440h20v20h-20z"/><path d="m460 440h20v20h-20z"/><path d="m200 460h20v20h-20z"/><path d="m240 460h20v20h-20z"/><path d="m380 460h20v20h-20z"/><path d="m400 460h20v20h-20z"/><path d="m440 460h20v20h-20z"/><path d="m460 460h20v20h-20z"/><path d="m480 460h20v20h-20z"/><path d="m500 460h20v20h-20z"/><path d="m520 460h20v20h-20z"/><path d="m200 480h20v20h-20z"/><path d="m240 480h20v20h-20z"/><path d="m320 480h20v20h-20z"/><path d="m360 480h20v20h-20z"/><path d="m380 480h20v20h-20z"/><path d="m400 480h20v20h-20z"/><path d="m440 480h20v20h-20z"/><path d="m480 480h20v20h-20z"/><path d="m500 480h20v20h-20z"/><path d="m220 500h20v20h-20z"/><path d="m240 500h20v20h-20z"/><path d="m260 500h20v20h-20z"/><path d="m280 500h20v20h-20z"/><path d="m300 500h20v20h-20z"/><path d="m320 500h20v20h-20z"/><path d="m380 500h20v20h-20z"/><path d="m440 500h20v20h-20z"/><path d="m480 500h20v20h-20z"/><path d="m200 520h20v20h-20z"/><path d="m220 520h20v20h-20z"/><path d="m260 520h20v20h-20z"/><path d="m420 520h20v20h-20z"/><path d="m440 520h20v20h-20z"/><path d="m460 520h20v20h-20z"/><path d="m480 520h20v20h-20z"/><path d="m500 520h20v20h-20z"/><path d="m520 520h20v20h-20z"/></g><g transform="translate(40 40)"><path d="m21 21h98v98h-98z"/><path d="m119 0h-98-21v21 98 21h21 98 21v-21-98-21zm0 119h-98v-98h98z" fill="#000" fill-rule="nonzero"/></g><g transform="translate(400 40)"><path d="m21 21h98v98h-98z"/><path d="m119 0h-98-21v21 98 21h21 98 21v-21-98-21zm0 119h-98v-98h98z" fill="#000" fill-rule="nonzero"/></g><g transform="translate(40 400)"><path d="m21 21h98v98h-98z"/><path d="m119 0h-98-21v21 98 21h21 98 21v-21-98-21zm0 119h-98v-98h98z" fill="#000" fill-rule="nonzero"/></g><path d="m80 80h60v60h-60z" fill="#000" fill-rule="nonzero"/><path d="m440 80h60v60h-60z" fill="#000" fill-rule="nonzero"/><path d="m80 440h60v60h-60z" fill="#000" fill-rule="nonzero"/></g></svg>