<?xml version="1.0" encoding="UTF-8"?>
<svg width="40px" height="40px" viewBox="0 0 40 40" version="1.1" xmlns="http://www.w3.org/2000/svg" xmlns:xlink="http://www.w3.org/1999/xlink">
    <title>IconMedium</title>
    <g id="IconMedium" stroke="none" stroke-width="1" fill="none" fill-rule="evenodd">
        <path d="M35,6 L35,35 L5,35 L5,6 L35,6 Z M16.0185185,15.1142857 C13.1548198,15.1142857 10.8333333,17.5255521 10.8333333,20.5 C10.8333333,23.4744479 13.1548198,25.8857143 16.0185185,25.8857143 C18.8822172,25.8857143 21.2037037,23.4744479 21.2037037,20.5 C21.2037037,17.5255521 18.8822172,15.1142857 16.0185185,15.1142857 Z M24.2592593,15.4028061 C22.7762724,15.4028061 21.5740741,17.6848976 21.5740741,20.5 C21.5740741,23.3151024 22.7762724,25.5971939 24.2592593,25.5971939 C25.7422461,25.5971939 26.9444444,23.3151024 26.9444444,20.5 C26.9444444,17.6848976 25.7422461,15.4028061 24.2592593,15.4028061 Z M28.3518519,15.8836735 C27.7893396,15.8836735 27.3333333,17.9504733 27.3333333,20.5 C27.3333333,23.0495267 27.7893396,25.1163265 28.3518519,25.1163265 C28.9143641,25.1163265 29.3703704,23.0495267 29.3703704,20.5 C29.3703704,17.9504733 28.9143641,15.8836735 28.3518519,15.8836735 Z" id="Combined-Shape" fill="#000000"></path>
    </g>
</svg>