<?xml version="1.0" encoding="UTF-8"?>
<svg width="1024px" height="1024px" viewBox="0 0 1024 1024" version="1.1" xmlns="http://www.w3.org/2000/svg" xmlns:xlink="http://www.w3.org/1999/xlink">
    <title>Intro1 Copy</title>
    <g id="Intro1-Copy" stroke="none" stroke-width="1" fill="none" fill-rule="evenodd">
        <rect id="Rectangle" fill="#0B7DC3" x="0" y="0" width="1024" height="1024" rx="20"></rect>
        <g id="Group" transform="translate(207.000000, 213.000000)">
            <rect id="Rectangle" stroke="#00AEEF" stroke-width="12" fill-opacity="0.3" fill="#00AEEF" x="0" y="17" width="316" height="180" rx="43"></rect>
            <path d="M32.85,159 L32.85,111 L86.1,111 L86.1,97.05 L32.85,97.05 L32.85,65.85 L89.25,65.85 L89.25,51.9 L16.5,51.9 L16.5,159 L32.85,159 Z M113.4,71.85 C116.4,71.85 119.1,70.8 121.2,68.85 C123.3,66.75 124.5,64.2 124.5,61.05 C124.5,57.9 123.45,55.35 121.35,53.4 C119.25,51.3 116.55,50.4 113.4,50.4 C110.25,50.4 107.7,51.3 105.6,53.4 C103.5,55.35 102.45,57.9 102.45,61.05 C102.45,64.05 103.5,66.75 105.6,68.85 C107.7,70.8 110.25,71.85 113.4,71.85 Z M121.35,159 L121.35,81.45 L105.45,81.45 L105.45,159 L121.35,159 Z M158.7,159 L158.7,112.35 C159.3,106.05 161.55,101.1 165.15,97.5 C168.45,94.2 172.5,92.7 177,92.7 C189,92.7 195.15,99.3 195.15,112.5 L195.15,159 L211.05,159 L211.05,111.15 C211.05,89.85 201.3,79.35 182.1,79.35 C177.3,79.35 172.95,80.25 169.05,82.35 C165.15,84.3 161.7,87.15 158.7,91.05 L158.7,81.45 L142.8,81.45 L142.8,159 L158.7,159 Z M262.05,161.1 C272.55,161.1 280.65,157.2 286.05,149.7 L286.05,159 L300.9,159 L300.9,49.8 L285,49.8 L285,93 C278.7,83.85 270.75,79.35 261.3,79.35 C250.2,79.35 241.35,83.4 235.05,91.5 C229.05,99 226.2,108.45 226.2,119.85 C226.2,131.7 229.2,141.45 235.2,148.95 C241.65,157.05 250.65,161.1 262.05,161.1 Z M264.45,148.2 C256.65,148.2 250.8,145.35 247.2,139.8 C244.05,135 242.55,128.4 242.55,119.85 C242.55,111.3 244.2,104.7 247.5,100.2 C251.25,94.8 257.1,92.25 264.9,92.25 C270.75,92.25 275.55,94.5 279.45,99.3 C283.35,104.4 285.45,111.15 285.45,119.55 L285.45,120.9 C285.45,128.7 283.8,135 280.5,139.95 C276.6,145.35 271.35,148.2 264.45,148.2 Z M431.85,94.65 L431.85,40.5 L338.7,40.5 L338.7,94.65 L431.85,94.65 Z M417.75,61.95 L352.8,61.95 L352.8,52.65 L417.75,52.65 L417.75,61.95 Z M417.75,82.5 L352.8,82.5 L352.8,73.2 L417.75,73.2 L417.75,82.5 Z M326.55,174.3 C335.25,167.4 342.45,158.7 348.15,148.5 C354,157.35 360.6,163.35 367.8,166.5 C376.95,170.1 393.9,172.05 418.8,172.2 C427.2,172.35 436.8,172.5 447.3,172.5 L451.2,159.15 C442.2,159.45 430.95,159.75 417.75,159.75 C408.75,159.75 400.65,159.45 393.75,158.85 L393.75,142.8 L435.75,142.8 L435.75,130.2 L393.75,130.2 L393.75,116.25 L451.8,116.25 L451.8,103.35 L318.15,103.35 L318.15,116.25 L379.5,116.25 L379.5,156.75 C377.25,156.15 375.3,155.7 373.5,155.1 C366,152.55 359.4,146.7 353.4,137.4 C355.2,132.6 356.85,127.65 358.35,122.25 L344.85,120 C340.05,137.7 330.75,151.95 317.25,162.6 L326.55,174.3 Z M537.75,125.55 L537.75,54.75 L578.55,54.75 L578.55,125.55 L592.95,125.55 L592.95,41.1 L523.65,41.1 L523.65,125.55 L537.75,125.55 Z M469.35,156 C486.3,151.8 502.35,146.7 517.35,140.7 L517.35,127.05 C511.5,129.45 505.5,131.7 499.35,133.8 L499.35,104.1 L514.95,104.1 L514.95,90.3 L499.35,90.3 L499.35,58.5 L517.05,58.5 L517.05,44.85 L466.95,44.85 L466.95,58.5 L484.95,58.5 L484.95,90.3 L468.9,90.3 L468.9,104.1 L484.95,104.1 L484.95,138.15 C478.65,139.8 472.35,141.15 465.9,142.35 L469.35,156 Z M515.55,175.2 C532.35,169.05 544.5,160.35 551.85,148.95 C554.55,144.6 556.95,139.5 558.9,133.8 L558.9,157.5 C558.9,167.1 563.55,172.05 572.85,172.05 L588.45,172.05 C593.55,172.05 597.3,170.85 599.85,168.6 C602.4,166.05 604.2,158.4 605.25,145.65 L592.05,141.3 C591.6,149.85 590.85,154.95 589.95,156.75 C589.05,158.25 587.7,159 585.9,159 L577.05,159 C574.35,159 573.15,157.5 573.15,154.5 L573.15,124.95 L561.45,124.95 C563.1,117.6 564.15,109.35 564.45,100.05 L564.45,64.2 L550.8,64.2 L550.8,100.05 C550.2,116.25 547.05,129.45 541.2,139.65 C535.35,148.95 524.25,156.9 507.75,163.2 L515.55,175.2 Z M31.95,289.95 L31.95,272.25 L129.75,272.25 L129.75,289.95 L143.55,289.95 L143.55,259.2 L88.8,259.2 C87.3,253.95 85.65,249.3 83.85,245.1 L69.3,247.5 C71.1,251.1 72.75,255 74.4,259.2 L18.15,259.2 L18.15,289.95 L31.95,289.95 Z M75.15,304.8 L82.5,293.55 C73.8,287.4 64.05,282.15 53.4,277.95 L46.35,288.45 C56.25,292.35 65.85,297.9 75.15,304.8 Z M139.2,385.35 L147,373.05 C129.6,362.25 110.55,352.65 89.85,344.55 C90.45,343.35 91.2,342.15 91.95,340.95 L144.9,340.95 L144.9,327.45 L97.8,327.45 C100.8,318.45 102.45,308.4 102.9,297.3 L102.9,279 L89.1,279 L89.1,297.3 C88.5,308.4 86.4,318.45 82.8,327.45 L17.25,327.45 L17.25,340.95 L75.45,340.95 L72.9,344.4 C62.85,355.8 43.8,365.1 15.9,372.45 L23.7,384.6 C50.4,377.7 69.9,367.8 82.05,354.9 C101.55,362.7 120.6,372.75 139.2,385.35 Z M60.6,325.95 L67.95,314.7 C59.1,308.55 49.35,303.3 38.7,298.95 L31.65,309.6 C41.55,313.5 51.3,318.9 60.6,325.95 Z M298.5,379.35 L298.5,365.25 L240.75,365.25 L240.75,331.05 L285.9,331.05 L285.9,317.25 L240.75,317.25 L240.75,286.2 L288.9,286.2 L288.9,272.4 L240.75,272.4 L240.75,247.2 L226.5,247.2 L226.5,272.4 L198.6,272.4 C200.4,266.4 202.05,259.95 203.55,253.05 L189,250.5 C184.2,274.65 175.05,293.85 161.55,308.1 L170.85,319.95 C180,310.95 187.5,299.7 193.5,286.2 L226.5,286.2 L226.5,317.25 L183.6,317.25 L183.6,331.05 L226.5,331.05 L226.5,365.25 L165.45,365.25 L165.45,379.35 L298.5,379.35 Z M375.45,384.45 L375.45,377.1 L426.6,377.1 L426.6,384.3 L440.7,384.3 L440.7,321.75 L407.7,321.75 L407.7,302.25 L449.55,302.25 L449.55,288.6 L407.7,288.6 L407.7,266.7 C421.2,264.75 433.05,261.9 443.4,258.3 L436.35,246.3 C414.15,253.5 386.85,257.1 354.3,257.1 L358.8,269.85 C370.95,269.85 382.35,269.25 393.15,268.35 L393.15,288.6 L351.6,288.6 L351.6,302.25 L393.15,302.25 L393.15,321.75 L361.2,321.75 L361.2,384.45 L375.45,384.45 Z M342,276.75 L351.75,267.15 C344.7,260.55 336.15,253.95 326.25,247.5 L316.5,256.65 C327.45,263.85 336,270.6 342,276.75 Z M338.7,315.15 L348.6,305.25 C341.7,297.9 333,290.55 322.8,283.2 L312.75,292.95 C323.85,300.9 332.55,308.25 338.7,315.15 Z M329.55,382.65 C337.05,365.85 344.1,347.85 350.4,328.65 L337.35,323.55 C331.2,341.55 323.85,359.1 315.3,376.35 L329.55,382.65 Z M426.6,363.75 L375.45,363.75 L375.45,335.1 L426.6,335.1 L426.6,363.75 Z M571.65,382.8 C584.4,382.8 591.6,377.4 593.1,366.6 C594.6,354.6 595.35,322.65 595.35,270.9 L549,270.9 C551.4,263.55 553.5,255.75 555,247.35 L540.9,245.55 C537.3,266.25 530.4,283.8 520.5,298.2 L529.05,309.45 C534.75,301.95 539.55,293.7 543.75,284.7 L581.4,284.7 C581.1,327.45 580.65,352.65 579.75,360.15 C578.85,366.45 575.4,369.6 569.4,369.6 C564.6,369.6 558.9,369.3 552.3,369 L555.75,382.05 C563.25,382.5 568.65,382.8 571.65,382.8 Z M480.6,379.5 L480.6,367.35 L504.3,367.35 L504.3,375.15 L517.95,375.15 L517.95,270.75 L494.85,270.75 C497.7,263.55 499.95,255.9 501.45,247.65 L487.2,245.7 C486,254.4 483.9,262.65 481.2,270.75 L466.95,270.75 L466.95,379.5 L480.6,379.5 Z M504.3,311.85 L480.6,311.85 L480.6,284.25 L504.3,284.25 L504.3,311.85 Z M556.5,346.95 L567.75,339 C562.5,329.7 554.85,319.05 544.95,306.75 L533.4,313.95 C543,326.1 550.8,337.05 556.5,346.95 Z M504.3,354.15 L480.6,354.15 L480.6,324.6 L504.3,324.6 L504.3,354.15 Z M31.1220703,495.983398 L32.8066406,457.311523 L18.1582031,457.311523 L19.8427734,495.983398 L31.1220703,495.983398 Z M55.5117188,495.983398 L57.1962891,457.311523 L42.5478516,457.311523 L44.1591797,495.983398 L55.5117188,495.983398 Z M124.286133,564.757812 C147.650391,564.757812 165.155273,550.62207 168.451172,529.601562 L168.524414,528.869141 L152.264648,528.869141 L152.044922,529.52832 C148.089844,542.931641 138.348633,550.255859 124.286133,550.255859 C104.730469,550.255859 92.0595703,534.582031 92.0595703,510.119141 L92.0595703,510.045898 C92.0595703,485.583008 104.657227,470.055664 124.286133,470.055664 C138.495117,470.055664 148.30957,477.599609 151.825195,489.977539 L152.264648,491.442383 L168.524414,491.442383 L168.37793,490.783203 C165.082031,469.90918 147.577148,455.553711 124.286133,455.553711 C94.3300781,455.553711 75.2871094,476.500977 75.2871094,510.045898 L75.2871094,510.119141 C75.2871094,543.664062 94.3300781,564.757812 124.286133,564.757812 Z M208.514648,564.538086 C211.737305,564.538086 214.740234,564.171875 216.571289,563.878906 L216.571289,551.647461 C215.399414,551.793945 214.007812,551.94043 212.323242,551.94043 C205.658203,551.94043 202.142578,549.59668 202.142578,541.759766 L202.142578,498.546875 L216.571289,498.546875 L216.571289,485.949219 L202.142578,485.949219 L202.142578,465.880859 L185.956055,465.880859 L185.956055,485.949219 L174.896484,485.949219 L174.896484,498.546875 L185.956055,498.546875 L185.956055,542.711914 C185.956055,558.092773 193.280273,564.538086 208.514648,564.538086 Z M245.428711,563 L245.428711,517.077148 C245.428711,505.578125 251.727539,498.913086 261.908203,498.913086 C264.984375,498.913086 267.767578,499.279297 269.012695,499.791992 L269.012695,485.070312 C267.767578,484.850586 265.790039,484.484375 263.519531,484.484375 C254.730469,484.484375 248.285156,490.124023 245.794922,499.132812 L245.428711,499.132812 L245.428711,485.949219 L229.608398,485.949219 L229.608398,563 L245.428711,563 Z M295.233398,563 L295.233398,457.311523 L279.413086,457.311523 L279.413086,563 L295.233398,563 Z M357.269531,556.847656 L357.269531,527.257812 L388.250977,527.257812 L388.250977,512.975586 L357.269531,512.975586 L357.269531,483.385742 L342.987305,483.385742 L342.987305,512.975586 L312.079102,512.975586 L312.079102,527.257812 L342.987305,527.257812 L342.987305,556.847656 L357.269531,556.847656 Z M422.748047,563 L422.748047,518.761719 L468.158203,518.761719 L468.158203,504.918945 L422.748047,504.918945 L422.748047,471.447266 L472.333008,471.447266 L472.333008,457.311523 L406.341797,457.311523 L406.341797,563 L422.748047,563 Z M501.996094,495.983398 L503.680664,457.311523 L489.032227,457.311523 L490.716797,495.983398 L501.996094,495.983398 Z M526.385742,495.983398 L528.070312,457.311523 L513.421875,457.311523 L515.033203,495.983398 L526.385742,495.983398 Z" id="Find是现实生活的&quot;Ctrl+F&quot;" fill="#FFFFFF" fill-rule="nonzero"></path>
        </g>
    </g>
</svg>