<svg height="516" viewBox="0 0 516 516" width="516" xmlns="http://www.w3.org/2000/svg"><g fill="none" fill-rule="evenodd"><g fill-opacity=".5"><rect fill="#ff3939" height="140" rx="24" stroke="#ff3939" stroke-width="5" width="140" x="19" y="357"/><rect fill="#ffdc00" height="140" rx="24" stroke="#ffdc00" stroke-width="5" width="140" x="19" y="19"/><rect fill="#34d425" height="140" rx="24" stroke="#34d425" stroke-width="5" width="140" x="357" y="19"/><rect fill="#00aeef" height="162" rx="24" stroke="#00aeef" stroke-width="5" width="162" x="177" y="8"/><rect fill="#005edc" height="162" rx="24" stroke="#005edc" stroke-width="5" width="162" x="346" y="177"/><rect fill="#6555ff" height="162" rx="24" stroke="#6555ff" stroke-width="5" width="162" x="177" y="346"/><rect fill="#db55ff" height="140" rx="24" stroke="#db55ff" stroke-width="5" width="140" x="357" y="357"/><rect fill="#00aeef" height="142" rx="24" width="142" x="188" y="187"/></g><path d="m281.861328 306.65625c6.738281 0 10.009766-3.369141 10.009766-10.644531v-36.962891c0-6.542969-2.734375-9.960937-8.251953-10.498047v-11.865234c0-18.701172-12.597657-27.685547-25.683594-27.685547-13.085938 0-25.634766 8.984375-25.634766 27.685547v12.011719c-5.273437.732422-8.300781 4.101562-8.300781 10.351562v36.962891c0 7.27539 3.320312 10.644531 10.058594 10.644531zm-39.257812-58.154297v-12.695312c0-10.839844 6.884765-16.894532 15.332031-16.894532 8.447265 0 15.332031 6.054688 15.332031 16.894532v12.646484z" fill="#fff" fill-rule="nonzero"/><rect fill="#ff8b00" fill-opacity=".5" height="162" rx="24" stroke="#ff8b00" stroke-width="5" width="162" x="8" y="177"/></g></svg>