<?xml version="1.0" encoding="UTF-8"?>
<svg width="32px" height="32px" viewBox="0 0 32 32" version="1.1" xmlns="http://www.w3.org/2000/svg" xmlns:xlink="http://www.w3.org/1999/xlink">
    <title>stats</title>
    <g id="stats" stroke="none" stroke-width="1" fill="none" fill-rule="evenodd">
        <path d="M15.2734375,20.1328125 C15.7421875,20.1328125 16.03125,19.8515625 16.03125,19.3984375 L16.03125,9.7421875 C16.03125,9.2890625 15.7421875,9 15.2734375,9 L13.6171875,9 C13.1484375,9 12.8515625,9.2890625 12.8515625,9.7421875 L12.8515625,19.3984375 C12.8515625,19.8515625 13.1484375,20.1328125 13.6171875,20.1328125 L15.2734375,20.1328125 Z M19.34375,20.1328125 C19.8125,20.1328125 20.109375,19.8515625 20.109375,19.3984375 L20.109375,11.5 C20.109375,11.0390625 19.8125,10.7578125 19.34375,10.7578125 L17.6875,10.7578125 C17.21875,10.7578125 16.9296875,11.0390625 16.9296875,11.5 L16.9296875,19.3984375 C16.9296875,19.8515625 17.21875,20.1328125 17.6875,20.1328125 L19.34375,20.1328125 Z M11.203125,20.1328125 C11.6640625,20.1328125 11.9609375,19.8515625 11.9609375,19.3984375 L11.9609375,13.1171875 C11.9609375,12.6640625 11.6640625,12.375 11.203125,12.375 L9.546875,12.375 C9.078125,12.375 8.78125,12.6640625 8.78125,13.1171875 L8.78125,19.3984375 C8.78125,19.8515625 9.078125,20.1328125 9.546875,20.1328125 L11.203125,20.1328125 Z M23.421875,20.1328125 C23.8828125,20.1328125 24.1796875,19.8515625 24.1796875,19.3984375 L24.1796875,14.6953125 C24.1796875,14.2421875 23.8828125,13.953125 23.421875,13.953125 L21.765625,13.953125 C21.296875,13.953125 21,14.2421875 21,14.6953125 L21,19.3984375 C21,19.8515625 21.296875,20.1328125 21.765625,20.1328125 L23.421875,20.1328125 Z M24.1875,22.8515625 C24.6171875,22.8515625 24.96875,22.515625 24.96875,22.078125 C24.96875,21.6328125 24.6171875,21.296875 24.1875,21.296875 L8.7890625,21.296875 C8.3515625,21.296875 8,21.6328125 8,22.078125 C8,22.515625 8.3515625,22.8515625 8.7890625,22.8515625 L24.1875,22.8515625 Z" id="􀣉" fill="#D8D8D8" fill-rule="nonzero"></path>
    </g>
</svg>