<svg fill="none" height="100" viewBox="0 0 100 100" width="100" xmlns="http://www.w3.org/2000/svg"><path clip-rule="evenodd" d="m49.9954 1c-27.6068 0-49.9954 22.4931-49.9954 50.2416 0 22.1969 14.3252 41.0259 34.1938 47.6693 2.5016.4626 3.4132-1.0887 3.4132-2.4211 0-1.1936-.0429-4.3518-.0675-8.5432-13.9077 3.0349-16.8421-6.7358-16.8421-6.7358-2.2745-5.8045-5.5527-7.3497-5.5527-7.3497-4.5397-3.115.3438-3.0534.3438-3.0534 5.0185.3547 7.6583 5.1784 7.6583 5.1784 4.4599 7.6766 11.7039 5.459 14.5523 4.1729.4543-3.2445 1.7465-5.459 3.1738-6.7143-11.1022-1.2676-22.7754-5.5793-22.7754-24.8308 0-5.4837 1.9492-9.9712 5.1475-13.481-.5156-1.2707-2.2315-6.3813.4911-13.296 0 0 4.196-1.3509 13.7481 5.1506 3.9873-1.1165 8.2661-1.6717 12.5173-1.6932 4.2482.0215 8.5239.5767 12.5173 1.6932 9.546-6.5015 13.7358-5.1506 13.7358-5.1506 2.7288 6.9147 1.013 12.0253.5004 13.296 3.2045 3.5098 5.1382 7.9973 5.1382 13.481 0 19.3009-11.6915 23.5478-22.8275 24.7907 1.7925 1.5514 3.3917 4.617 3.3917 9.3019 0 6.7174-.0614 12.1363-.0614 13.7833 0 1.3447.9024 2.9085 3.4378 2.4181 19.8533-6.6588 34.1662-25.4755 34.1662-47.6663 0-27.7485-22.3887-50.2416-50.0046-50.2416z" fill="#fffffe" fill-rule="evenodd"/></svg>