<svg xmlns="http://www.w3.org/2000/svg" xmlns:xlink="http://www.w3.org/1999/xlink" width="1100px" height="1100px" viewBox="0 0 1100 1100" enable-background="new 0 0 1100 1100" x="0px" y="0px"><g transform="translate(40, 40)"><g transform="translate(325.928 0) scale(0.40741 0.40741)"><g style="fill: rgb(0, 0, 0);"><rect width="100" height="100"/></g></g><g transform="translate(366.669 0) scale(0.40741 0.40741)"><g style="fill: rgb(0, 0, 0);"><rect width="100" height="100"/></g></g><g transform="translate(570.374 0) scale(0.40741 0.40741)"><g style="fill: rgb(0, 0, 0);"><rect width="100" height="100"/></g></g><g transform="translate(529.633 40.741) scale(0.40741 0.40741)"><g style="fill: rgb(0, 0, 0);"><rect width="100" height="100"/></g></g><g transform="translate(570.374 40.741) scale(0.40741 0.40741)"><g style="fill: rgb(0, 0, 0);"><rect width="100" height="100"/></g></g><g transform="translate(651.856 40.741) scale(0.40741 0.40741)"><g style="fill: rgb(0, 0, 0);"><rect width="100" height="100"/></g></g><g transform="translate(325.928 81.482) scale(0.40741 0.40741)"><g style="fill: rgb(0, 0, 0);"><rect width="100" height="100"/></g></g><g transform="translate(448.151 81.482) scale(0.40741 0.40741)"><g style="fill: rgb(0, 0, 0);"><rect width="100" height="100"/></g></g><g transform="translate(488.892 81.482) scale(0.40741 0.40741)"><g style="fill: rgb(0, 0, 0);"><rect width="100" height="100"/></g></g><g transform="translate(529.633 81.482) scale(0.40741 0.40741)"><g style="fill: rgb(0, 0, 0);"><rect width="100" height="100"/></g></g><g transform="translate(570.374 81.482) scale(0.40741 0.40741)"><g style="fill: rgb(0, 0, 0);"><rect width="100" height="100"/></g></g><g transform="translate(611.115 81.482) scale(0.40741 0.40741)"><g style="fill: rgb(0, 0, 0);"><rect width="100" height="100"/></g></g><g transform="translate(325.928 122.223) scale(0.40741 0.40741)"><g style="fill: rgb(0, 0, 0);"><rect width="100" height="100"/></g></g><g transform="translate(366.669 122.223) scale(0.40741 0.40741)"><g style="fill: rgb(0, 0, 0);"><rect width="100" height="100"/></g></g><g transform="translate(448.151 122.223) scale(0.40741 0.40741)"><g style="fill: rgb(0, 0, 0);"><rect width="100" height="100"/></g></g><g transform="translate(529.633 122.223) scale(0.40741 0.40741)"><g style="fill: rgb(0, 0, 0);"><rect width="100" height="100"/></g></g><g transform="translate(325.928 162.964) scale(0.40741 0.40741)"><g style="fill: rgb(0, 0, 0);"><rect width="100" height="100"/></g></g><g transform="translate(366.669 162.964) scale(0.40741 0.40741)"><g style="fill: rgb(0, 0, 0);"><rect width="100" height="100"/></g></g><g transform="translate(407.41 162.964) scale(0.40741 0.40741)"><g style="fill: rgb(0, 0, 0);"><rect width="100" height="100"/></g></g><g transform="translate(448.151 162.964) scale(0.40741 0.40741)"><g style="fill: rgb(0, 0, 0);"><rect width="100" height="100"/></g></g><g transform="translate(611.115 162.964) scale(0.40741 0.40741)"><g style="fill: rgb(0, 0, 0);"><rect width="100" height="100"/></g></g><g transform="translate(366.669 203.705) scale(0.40741 0.40741)"><g style="fill: rgb(0, 0, 0);"><rect width="100" height="100"/></g></g><g transform="translate(488.892 203.705) scale(0.40741 0.40741)"><g style="fill: rgb(0, 0, 0);"><rect width="100" height="100"/></g></g><g transform="translate(570.374 203.705) scale(0.40741 0.40741)"><g style="fill: rgb(0, 0, 0);"><rect width="100" height="100"/></g></g><g transform="translate(325.928 244.446) scale(0.40741 0.40741)"><g style="fill: rgb(0, 0, 0);"><rect width="100" height="100"/></g></g><g transform="translate(407.41 244.446) scale(0.40741 0.40741)"><g style="fill: rgb(0, 0, 0);"><rect width="100" height="100"/></g></g><g transform="translate(488.892 244.446) scale(0.40741 0.40741)"><g style="fill: rgb(0, 0, 0);"><rect width="100" height="100"/></g></g><g transform="translate(570.374 244.446) scale(0.40741 0.40741)"><g style="fill: rgb(0, 0, 0);"><rect width="100" height="100"/></g></g><g transform="translate(651.856 244.446) scale(0.40741 0.40741)"><g style="fill: rgb(0, 0, 0);"><rect width="100" height="100"/></g></g><g transform="translate(366.669 285.187) scale(0.40741 0.40741)"><g style="fill: rgb(0, 0, 0);"><rect width="100" height="100"/></g></g><g transform="translate(448.151 285.187) scale(0.40741 0.40741)"><g style="fill: rgb(0, 0, 0);"><rect width="100" height="100"/></g></g><g transform="translate(611.115 285.187) scale(0.40741 0.40741)"><g style="fill: rgb(0, 0, 0);"><rect width="100" height="100"/></g></g><g transform="translate(651.856 285.187) scale(0.40741 0.40741)"><g style="fill: rgb(0, 0, 0);"><rect width="100" height="100"/></g></g><g transform="translate(0 325.928) scale(0.40741 0.40741)"><g style="fill: rgb(0, 0, 0);"><rect width="100" height="100"/></g></g><g transform="translate(40.741 325.928) scale(0.40741 0.40741)"><g style="fill: rgb(0, 0, 0);"><rect width="100" height="100"/></g></g><g transform="translate(81.482 325.928) scale(0.40741 0.40741)"><g style="fill: rgb(0, 0, 0);"><rect width="100" height="100"/></g></g><g transform="translate(122.223 325.928) scale(0.40741 0.40741)"><g style="fill: rgb(0, 0, 0);"><rect width="100" height="100"/></g></g><g transform="translate(244.446 325.928) scale(0.40741 0.40741)"><g style="fill: rgb(0, 0, 0);"><rect width="100" height="100"/></g></g><g transform="translate(325.928 325.928) scale(0.40741 0.40741)"><g style="fill: rgb(0, 0, 0);"><rect width="100" height="100"/></g></g><g transform="translate(570.374 325.928) scale(0.40741 0.40741)"><g style="fill: rgb(0, 0, 0);"><rect width="100" height="100"/></g></g><g transform="translate(611.115 325.928) scale(0.40741 0.40741)"><g style="fill: rgb(0, 0, 0);"><rect width="100" height="100"/></g></g><g transform="translate(651.856 325.928) scale(0.40741 0.40741)"><g style="fill: rgb(0, 0, 0);"><rect width="100" height="100"/></g></g><g transform="translate(692.597 325.928) scale(0.40741 0.40741)"><g style="fill: rgb(0, 0, 0);"><rect width="100" height="100"/></g></g><g transform="translate(814.82 325.928) scale(0.40741 0.40741)"><g style="fill: rgb(0, 0, 0);"><rect width="100" height="100"/></g></g><g transform="translate(855.561 325.928) scale(0.40741 0.40741)"><g style="fill: rgb(0, 0, 0);"><rect width="100" height="100"/></g></g><g transform="translate(896.302 325.928) scale(0.40741 0.40741)"><g style="fill: rgb(0, 0, 0);"><rect width="100" height="100"/></g></g><g transform="translate(977.784 325.928) scale(0.40741 0.40741)"><g style="fill: rgb(0, 0, 0);"><rect width="100" height="100"/></g></g><g transform="translate(0 366.669) scale(0.40741 0.40741)"><g style="fill: rgb(0, 0, 0);"><rect width="100" height="100"/></g></g><g transform="translate(40.741 366.669) scale(0.40741 0.40741)"><g style="fill: rgb(0, 0, 0);"><rect width="100" height="100"/></g></g><g transform="translate(81.482 366.669) scale(0.40741 0.40741)"><g style="fill: rgb(0, 0, 0);"><rect width="100" height="100"/></g></g><g transform="translate(122.223 366.669) scale(0.40741 0.40741)"><g style="fill: rgb(0, 0, 0);"><rect width="100" height="100"/></g></g><g transform="translate(203.705 366.669) scale(0.40741 0.40741)"><g style="fill: rgb(0, 0, 0);"><rect width="100" height="100"/></g></g><g transform="translate(366.669 366.669) scale(0.40741 0.40741)"><g style="fill: rgb(0, 0, 0);"><rect width="100" height="100"/></g></g><g transform="translate(651.856 366.669) scale(0.40741 0.40741)"><g style="fill: rgb(0, 0, 0);"><rect width="100" height="100"/></g></g><g transform="translate(692.597 366.669) scale(0.40741 0.40741)"><g style="fill: rgb(0, 0, 0);"><rect width="100" height="100"/></g></g><g transform="translate(774.079 366.669) scale(0.40741 0.40741)"><g style="fill: rgb(0, 0, 0);"><rect width="100" height="100"/></g></g><g transform="translate(937.043 366.669) scale(0.40741 0.40741)"><g style="fill: rgb(0, 0, 0);"><rect width="100" height="100"/></g></g><g transform="translate(0 407.41) scale(0.40741 0.40741)"><g style="fill: rgb(0, 0, 0);"><rect width="100" height="100"/></g></g><g transform="translate(40.741 407.41) scale(0.40741 0.40741)"><g style="fill: rgb(0, 0, 0);"><rect width="100" height="100"/></g></g><g transform="translate(81.482 407.41) scale(0.40741 0.40741)"><g style="fill: rgb(0, 0, 0);"><rect width="100" height="100"/></g></g><g transform="translate(244.446 407.41) scale(0.40741 0.40741)"><g style="fill: rgb(0, 0, 0);"><rect width="100" height="100"/></g></g><g transform="translate(285.187 407.41) scale(0.40741 0.40741)"><g style="fill: rgb(0, 0, 0);"><rect width="100" height="100"/></g></g><g transform="translate(529.633 407.41) scale(0.40741 0.40741)"><g style="fill: rgb(0, 0, 0);"><rect width="100" height="100"/></g></g><g transform="translate(651.856 407.41) scale(0.40741 0.40741)"><g style="fill: rgb(0, 0, 0);"><rect width="100" height="100"/></g></g><g transform="translate(692.597 407.41) scale(0.40741 0.40741)"><g style="fill: rgb(0, 0, 0);"><rect width="100" height="100"/></g></g><g transform="translate(774.079 407.41) scale(0.40741 0.40741)"><g style="fill: rgb(0, 0, 0);"><rect width="100" height="100"/></g></g><g transform="translate(814.82 407.41) scale(0.40741 0.40741)"><g style="fill: rgb(0, 0, 0);"><rect width="100" height="100"/></g></g><g transform="translate(122.223 448.151) scale(0.40741 0.40741)"><g style="fill: rgb(0, 0, 0);"><rect width="100" height="100"/></g></g><g transform="translate(285.187 448.151) scale(0.40741 0.40741)"><g style="fill: rgb(0, 0, 0);"><rect width="100" height="100"/></g></g><g transform="translate(448.151 448.151) scale(0.40741 0.40741)"><g style="fill: rgb(0, 0, 0);"><rect width="100" height="100"/></g></g><g transform="translate(488.892 448.151) scale(0.40741 0.40741)"><g style="fill: rgb(0, 0, 0);"><rect width="100" height="100"/></g></g><g transform="translate(529.633 448.151) scale(0.40741 0.40741)"><g style="fill: rgb(0, 0, 0);"><rect width="100" height="100"/></g></g><g transform="translate(611.115 448.151) scale(0.40741 0.40741)"><g style="fill: rgb(0, 0, 0);"><rect width="100" height="100"/></g></g><g transform="translate(651.856 448.151) scale(0.40741 0.40741)"><g style="fill: rgb(0, 0, 0);"><rect width="100" height="100"/></g></g><g transform="translate(774.079 448.151) scale(0.40741 0.40741)"><g style="fill: rgb(0, 0, 0);"><rect width="100" height="100"/></g></g><g transform="translate(855.561 448.151) scale(0.40741 0.40741)"><g style="fill: rgb(0, 0, 0);"><rect width="100" height="100"/></g></g><g transform="translate(896.302 448.151) scale(0.40741 0.40741)"><g style="fill: rgb(0, 0, 0);"><rect width="100" height="100"/></g></g><g transform="translate(0 488.892) scale(0.40741 0.40741)"><g style="fill: rgb(0, 0, 0);"><rect width="100" height="100"/></g></g><g transform="translate(81.482 488.892) scale(0.40741 0.40741)"><g style="fill: rgb(0, 0, 0);"><rect width="100" height="100"/></g></g><g transform="translate(244.446 488.892) scale(0.40741 0.40741)"><g style="fill: rgb(0, 0, 0);"><rect width="100" height="100"/></g></g><g transform="translate(285.187 488.892) scale(0.40741 0.40741)"><g style="fill: rgb(0, 0, 0);"><rect width="100" height="100"/></g></g><g transform="translate(325.928 488.892) scale(0.40741 0.40741)"><g style="fill: rgb(0, 0, 0);"><rect width="100" height="100"/></g></g><g transform="translate(366.669 488.892) scale(0.40741 0.40741)"><g style="fill: rgb(0, 0, 0);"><rect width="100" height="100"/></g></g><g transform="translate(448.151 488.892) scale(0.40741 0.40741)"><g style="fill: rgb(0, 0, 0);"><rect width="100" height="100"/></g></g><g transform="translate(570.374 488.892) scale(0.40741 0.40741)"><g style="fill: rgb(0, 0, 0);"><rect width="100" height="100"/></g></g><g transform="translate(611.115 488.892) scale(0.40741 0.40741)"><g style="fill: rgb(0, 0, 0);"><rect width="100" height="100"/></g></g><g transform="translate(692.597 488.892) scale(0.40741 0.40741)"><g style="fill: rgb(0, 0, 0);"><rect width="100" height="100"/></g></g><g transform="translate(733.338 488.892) scale(0.40741 0.40741)"><g style="fill: rgb(0, 0, 0);"><rect width="100" height="100"/></g></g><g transform="translate(814.82 488.892) scale(0.40741 0.40741)"><g style="fill: rgb(0, 0, 0);"><rect width="100" height="100"/></g></g><g transform="translate(896.302 488.892) scale(0.40741 0.40741)"><g style="fill: rgb(0, 0, 0);"><rect width="100" height="100"/></g></g><g transform="translate(937.043 488.892) scale(0.40741 0.40741)"><g style="fill: rgb(0, 0, 0);"><rect width="100" height="100"/></g></g><g transform="translate(977.784 488.892) scale(0.40741 0.40741)"><g style="fill: rgb(0, 0, 0);"><rect width="100" height="100"/></g></g><g transform="translate(40.741 529.633) scale(0.40741 0.40741)"><g style="fill: rgb(0, 0, 0);"><rect width="100" height="100"/></g></g><g transform="translate(162.964 529.633) scale(0.40741 0.40741)"><g style="fill: rgb(0, 0, 0);"><rect width="100" height="100"/></g></g><g transform="translate(203.705 529.633) scale(0.40741 0.40741)"><g style="fill: rgb(0, 0, 0);"><rect width="100" height="100"/></g></g><g transform="translate(407.41 529.633) scale(0.40741 0.40741)"><g style="fill: rgb(0, 0, 0);"><rect width="100" height="100"/></g></g><g transform="translate(448.151 529.633) scale(0.40741 0.40741)"><g style="fill: rgb(0, 0, 0);"><rect width="100" height="100"/></g></g><g transform="translate(570.374 529.633) scale(0.40741 0.40741)"><g style="fill: rgb(0, 0, 0);"><rect width="100" height="100"/></g></g><g transform="translate(611.115 529.633) scale(0.40741 0.40741)"><g style="fill: rgb(0, 0, 0);"><rect width="100" height="100"/></g></g><g transform="translate(651.856 529.633) scale(0.40741 0.40741)"><g style="fill: rgb(0, 0, 0);"><rect width="100" height="100"/></g></g><g transform="translate(733.338 529.633) scale(0.40741 0.40741)"><g style="fill: rgb(0, 0, 0);"><rect width="100" height="100"/></g></g><g transform="translate(774.079 529.633) scale(0.40741 0.40741)"><g style="fill: rgb(0, 0, 0);"><rect width="100" height="100"/></g></g><g transform="translate(814.82 529.633) scale(0.40741 0.40741)"><g style="fill: rgb(0, 0, 0);"><rect width="100" height="100"/></g></g><g transform="translate(977.784 529.633) scale(0.40741 0.40741)"><g style="fill: rgb(0, 0, 0);"><rect width="100" height="100"/></g></g><g transform="translate(40.741 570.374) scale(0.40741 0.40741)"><g style="fill: rgb(0, 0, 0);"><rect width="100" height="100"/></g></g><g transform="translate(81.482 570.374) scale(0.40741 0.40741)"><g style="fill: rgb(0, 0, 0);"><rect width="100" height="100"/></g></g><g transform="translate(203.705 570.374) scale(0.40741 0.40741)"><g style="fill: rgb(0, 0, 0);"><rect width="100" height="100"/></g></g><g transform="translate(244.446 570.374) scale(0.40741 0.40741)"><g style="fill: rgb(0, 0, 0);"><rect width="100" height="100"/></g></g><g transform="translate(285.187 570.374) scale(0.40741 0.40741)"><g style="fill: rgb(0, 0, 0);"><rect width="100" height="100"/></g></g><g transform="translate(325.928 570.374) scale(0.40741 0.40741)"><g style="fill: rgb(0, 0, 0);"><rect width="100" height="100"/></g></g><g transform="translate(366.669 570.374) scale(0.40741 0.40741)"><g style="fill: rgb(0, 0, 0);"><rect width="100" height="100"/></g></g><g transform="translate(407.41 570.374) scale(0.40741 0.40741)"><g style="fill: rgb(0, 0, 0);"><rect width="100" height="100"/></g></g><g transform="translate(488.892 570.374) scale(0.40741 0.40741)"><g style="fill: rgb(0, 0, 0);"><rect width="100" height="100"/></g></g><g transform="translate(529.633 570.374) scale(0.40741 0.40741)"><g style="fill: rgb(0, 0, 0);"><rect width="100" height="100"/></g></g><g transform="translate(651.856 570.374) scale(0.40741 0.40741)"><g style="fill: rgb(0, 0, 0);"><rect width="100" height="100"/></g></g><g transform="translate(814.82 570.374) scale(0.40741 0.40741)"><g style="fill: rgb(0, 0, 0);"><rect width="100" height="100"/></g></g><g transform="translate(896.302 570.374) scale(0.40741 0.40741)"><g style="fill: rgb(0, 0, 0);"><rect width="100" height="100"/></g></g><g transform="translate(937.043 570.374) scale(0.40741 0.40741)"><g style="fill: rgb(0, 0, 0);"><rect width="100" height="100"/></g></g><g transform="translate(0 611.115) scale(0.40741 0.40741)"><g style="fill: rgb(0, 0, 0);"><rect width="100" height="100"/></g></g><g transform="translate(81.482 611.115) scale(0.40741 0.40741)"><g style="fill: rgb(0, 0, 0);"><rect width="100" height="100"/></g></g><g transform="translate(122.223 611.115) scale(0.40741 0.40741)"><g style="fill: rgb(0, 0, 0);"><rect width="100" height="100"/></g></g><g transform="translate(162.964 611.115) scale(0.40741 0.40741)"><g style="fill: rgb(0, 0, 0);"><rect width="100" height="100"/></g></g><g transform="translate(203.705 611.115) scale(0.40741 0.40741)"><g style="fill: rgb(0, 0, 0);"><rect width="100" height="100"/></g></g><g transform="translate(325.928 611.115) scale(0.40741 0.40741)"><g style="fill: rgb(0, 0, 0);"><rect width="100" height="100"/></g></g><g transform="translate(488.892 611.115) scale(0.40741 0.40741)"><g style="fill: rgb(0, 0, 0);"><rect width="100" height="100"/></g></g><g transform="translate(570.374 611.115) scale(0.40741 0.40741)"><g style="fill: rgb(0, 0, 0);"><rect width="100" height="100"/></g></g><g transform="translate(651.856 611.115) scale(0.40741 0.40741)"><g style="fill: rgb(0, 0, 0);"><rect width="100" height="100"/></g></g><g transform="translate(733.338 611.115) scale(0.40741 0.40741)"><g style="fill: rgb(0, 0, 0);"><rect width="100" height="100"/></g></g><g transform="translate(774.079 611.115) scale(0.40741 0.40741)"><g style="fill: rgb(0, 0, 0);"><rect width="100" height="100"/></g></g><g transform="translate(814.82 611.115) scale(0.40741 0.40741)"><g style="fill: rgb(0, 0, 0);"><rect width="100" height="100"/></g></g><g transform="translate(977.784 611.115) scale(0.40741 0.40741)"><g style="fill: rgb(0, 0, 0);"><rect width="100" height="100"/></g></g><g transform="translate(122.223 651.856) scale(0.40741 0.40741)"><g style="fill: rgb(0, 0, 0);"><rect width="100" height="100"/></g></g><g transform="translate(203.705 651.856) scale(0.40741 0.40741)"><g style="fill: rgb(0, 0, 0);"><rect width="100" height="100"/></g></g><g transform="translate(244.446 651.856) scale(0.40741 0.40741)"><g style="fill: rgb(0, 0, 0);"><rect width="100" height="100"/></g></g><g transform="translate(285.187 651.856) scale(0.40741 0.40741)"><g style="fill: rgb(0, 0, 0);"><rect width="100" height="100"/></g></g><g transform="translate(325.928 651.856) scale(0.40741 0.40741)"><g style="fill: rgb(0, 0, 0);"><rect width="100" height="100"/></g></g><g transform="translate(366.669 651.856) scale(0.40741 0.40741)"><g style="fill: rgb(0, 0, 0);"><rect width="100" height="100"/></g></g><g transform="translate(407.41 651.856) scale(0.40741 0.40741)"><g style="fill: rgb(0, 0, 0);"><rect width="100" height="100"/></g></g><g transform="translate(448.151 651.856) scale(0.40741 0.40741)"><g style="fill: rgb(0, 0, 0);"><rect width="100" height="100"/></g></g><g transform="translate(529.633 651.856) scale(0.40741 0.40741)"><g style="fill: rgb(0, 0, 0);"><rect width="100" height="100"/></g></g><g transform="translate(611.115 651.856) scale(0.40741 0.40741)"><g style="fill: rgb(0, 0, 0);"><rect width="100" height="100"/></g></g><g transform="translate(651.856 651.856) scale(0.40741 0.40741)"><g style="fill: rgb(0, 0, 0);"><rect width="100" height="100"/></g></g><g transform="translate(692.597 651.856) scale(0.40741 0.40741)"><g style="fill: rgb(0, 0, 0);"><rect width="100" height="100"/></g></g><g transform="translate(733.338 651.856) scale(0.40741 0.40741)"><g style="fill: rgb(0, 0, 0);"><rect width="100" height="100"/></g></g><g transform="translate(774.079 651.856) scale(0.40741 0.40741)"><g style="fill: rgb(0, 0, 0);"><rect width="100" height="100"/></g></g><g transform="translate(814.82 651.856) scale(0.40741 0.40741)"><g style="fill: rgb(0, 0, 0);"><rect width="100" height="100"/></g></g><g transform="translate(855.561 651.856) scale(0.40741 0.40741)"><g style="fill: rgb(0, 0, 0);"><rect width="100" height="100"/></g></g><g transform="translate(896.302 651.856) scale(0.40741 0.40741)"><g style="fill: rgb(0, 0, 0);"><rect width="100" height="100"/></g></g><g transform="translate(937.043 651.856) scale(0.40741 0.40741)"><g style="fill: rgb(0, 0, 0);"><rect width="100" height="100"/></g></g><g transform="translate(977.784 651.856) scale(0.40741 0.40741)"><g style="fill: rgb(0, 0, 0);"><rect width="100" height="100"/></g></g><g transform="translate(325.928 692.597) scale(0.40741 0.40741)"><g style="fill: rgb(0, 0, 0);"><rect width="100" height="100"/></g></g><g transform="translate(407.41 692.597) scale(0.40741 0.40741)"><g style="fill: rgb(0, 0, 0);"><rect width="100" height="100"/></g></g><g transform="translate(488.892 692.597) scale(0.40741 0.40741)"><g style="fill: rgb(0, 0, 0);"><rect width="100" height="100"/></g></g><g transform="translate(570.374 692.597) scale(0.40741 0.40741)"><g style="fill: rgb(0, 0, 0);"><rect width="100" height="100"/></g></g><g transform="translate(651.856 692.597) scale(0.40741 0.40741)"><g style="fill: rgb(0, 0, 0);"><rect width="100" height="100"/></g></g><g transform="translate(814.82 692.597) scale(0.40741 0.40741)"><g style="fill: rgb(0, 0, 0);"><rect width="100" height="100"/></g></g><g transform="translate(896.302 692.597) scale(0.40741 0.40741)"><g style="fill: rgb(0, 0, 0);"><rect width="100" height="100"/></g></g><g transform="translate(977.784 692.597) scale(0.40741 0.40741)"><g style="fill: rgb(0, 0, 0);"><rect width="100" height="100"/></g></g><g transform="translate(366.669 733.338) scale(0.40741 0.40741)"><g style="fill: rgb(0, 0, 0);"><rect width="100" height="100"/></g></g><g transform="translate(407.41 733.338) scale(0.40741 0.40741)"><g style="fill: rgb(0, 0, 0);"><rect width="100" height="100"/></g></g><g transform="translate(448.151 733.338) scale(0.40741 0.40741)"><g style="fill: rgb(0, 0, 0);"><rect width="100" height="100"/></g></g><g transform="translate(488.892 733.338) scale(0.40741 0.40741)"><g style="fill: rgb(0, 0, 0);"><rect width="100" height="100"/></g></g><g transform="translate(651.856 733.338) scale(0.40741 0.40741)"><g style="fill: rgb(0, 0, 0);"><rect width="100" height="100"/></g></g><g transform="translate(733.338 733.338) scale(0.40741 0.40741)"><g style="fill: rgb(0, 0, 0);"><rect width="100" height="100"/></g></g><g transform="translate(814.82 733.338) scale(0.40741 0.40741)"><g style="fill: rgb(0, 0, 0);"><rect width="100" height="100"/></g></g><g transform="translate(896.302 733.338) scale(0.40741 0.40741)"><g style="fill: rgb(0, 0, 0);"><rect width="100" height="100"/></g></g><g transform="translate(937.043 733.338) scale(0.40741 0.40741)"><g style="fill: rgb(0, 0, 0);"><rect width="100" height="100"/></g></g><g transform="translate(977.784 733.338) scale(0.40741 0.40741)"><g style="fill: rgb(0, 0, 0);"><rect width="100" height="100"/></g></g><g transform="translate(366.669 774.079) scale(0.40741 0.40741)"><g style="fill: rgb(0, 0, 0);"><rect width="100" height="100"/></g></g><g transform="translate(488.892 774.079) scale(0.40741 0.40741)"><g style="fill: rgb(0, 0, 0);"><rect width="100" height="100"/></g></g><g transform="translate(651.856 774.079) scale(0.40741 0.40741)"><g style="fill: rgb(0, 0, 0);"><rect width="100" height="100"/></g></g><g transform="translate(814.82 774.079) scale(0.40741 0.40741)"><g style="fill: rgb(0, 0, 0);"><rect width="100" height="100"/></g></g><g transform="translate(937.043 774.079) scale(0.40741 0.40741)"><g style="fill: rgb(0, 0, 0);"><rect width="100" height="100"/></g></g><g transform="translate(407.41 814.82) scale(0.40741 0.40741)"><g style="fill: rgb(0, 0, 0);"><rect width="100" height="100"/></g></g><g transform="translate(448.151 814.82) scale(0.40741 0.40741)"><g style="fill: rgb(0, 0, 0);"><rect width="100" height="100"/></g></g><g transform="translate(529.633 814.82) scale(0.40741 0.40741)"><g style="fill: rgb(0, 0, 0);"><rect width="100" height="100"/></g></g><g transform="translate(570.374 814.82) scale(0.40741 0.40741)"><g style="fill: rgb(0, 0, 0);"><rect width="100" height="100"/></g></g><g transform="translate(651.856 814.82) scale(0.40741 0.40741)"><g style="fill: rgb(0, 0, 0);"><rect width="100" height="100"/></g></g><g transform="translate(692.597 814.82) scale(0.40741 0.40741)"><g style="fill: rgb(0, 0, 0);"><rect width="100" height="100"/></g></g><g transform="translate(733.338 814.82) scale(0.40741 0.40741)"><g style="fill: rgb(0, 0, 0);"><rect width="100" height="100"/></g></g><g transform="translate(774.079 814.82) scale(0.40741 0.40741)"><g style="fill: rgb(0, 0, 0);"><rect width="100" height="100"/></g></g><g transform="translate(814.82 814.82) scale(0.40741 0.40741)"><g style="fill: rgb(0, 0, 0);"><rect width="100" height="100"/></g></g><g transform="translate(855.561 814.82) scale(0.40741 0.40741)"><g style="fill: rgb(0, 0, 0);"><rect width="100" height="100"/></g></g><g transform="translate(977.784 814.82) scale(0.40741 0.40741)"><g style="fill: rgb(0, 0, 0);"><rect width="100" height="100"/></g></g><g transform="translate(325.928 855.561) scale(0.40741 0.40741)"><g style="fill: rgb(0, 0, 0);"><rect width="100" height="100"/></g></g><g transform="translate(407.41 855.561) scale(0.40741 0.40741)"><g style="fill: rgb(0, 0, 0);"><rect width="100" height="100"/></g></g><g transform="translate(488.892 855.561) scale(0.40741 0.40741)"><g style="fill: rgb(0, 0, 0);"><rect width="100" height="100"/></g></g><g transform="translate(692.597 855.561) scale(0.40741 0.40741)"><g style="fill: rgb(0, 0, 0);"><rect width="100" height="100"/></g></g><g transform="translate(733.338 855.561) scale(0.40741 0.40741)"><g style="fill: rgb(0, 0, 0);"><rect width="100" height="100"/></g></g><g transform="translate(814.82 855.561) scale(0.40741 0.40741)"><g style="fill: rgb(0, 0, 0);"><rect width="100" height="100"/></g></g><g transform="translate(855.561 855.561) scale(0.40741 0.40741)"><g style="fill: rgb(0, 0, 0);"><rect width="100" height="100"/></g></g><g transform="translate(896.302 855.561) scale(0.40741 0.40741)"><g style="fill: rgb(0, 0, 0);"><rect width="100" height="100"/></g></g><g transform="translate(937.043 855.561) scale(0.40741 0.40741)"><g style="fill: rgb(0, 0, 0);"><rect width="100" height="100"/></g></g><g transform="translate(977.784 855.561) scale(0.40741 0.40741)"><g style="fill: rgb(0, 0, 0);"><rect width="100" height="100"/></g></g><g transform="translate(325.928 896.302) scale(0.40741 0.40741)"><g style="fill: rgb(0, 0, 0);"><rect width="100" height="100"/></g></g><g transform="translate(366.669 896.302) scale(0.40741 0.40741)"><g style="fill: rgb(0, 0, 0);"><rect width="100" height="100"/></g></g><g transform="translate(448.151 896.302) scale(0.40741 0.40741)"><g style="fill: rgb(0, 0, 0);"><rect width="100" height="100"/></g></g><g transform="translate(488.892 896.302) scale(0.40741 0.40741)"><g style="fill: rgb(0, 0, 0);"><rect width="100" height="100"/></g></g><g transform="translate(570.374 896.302) scale(0.40741 0.40741)"><g style="fill: rgb(0, 0, 0);"><rect width="100" height="100"/></g></g><g transform="translate(611.115 896.302) scale(0.40741 0.40741)"><g style="fill: rgb(0, 0, 0);"><rect width="100" height="100"/></g></g><g transform="translate(692.597 896.302) scale(0.40741 0.40741)"><g style="fill: rgb(0, 0, 0);"><rect width="100" height="100"/></g></g><g transform="translate(733.338 896.302) scale(0.40741 0.40741)"><g style="fill: rgb(0, 0, 0);"><rect width="100" height="100"/></g></g><g transform="translate(814.82 896.302) scale(0.40741 0.40741)"><g style="fill: rgb(0, 0, 0);"><rect width="100" height="100"/></g></g><g transform="translate(896.302 896.302) scale(0.40741 0.40741)"><g style="fill: rgb(0, 0, 0);"><rect width="100" height="100"/></g></g><g transform="translate(937.043 896.302) scale(0.40741 0.40741)"><g style="fill: rgb(0, 0, 0);"><rect width="100" height="100"/></g></g><g transform="translate(325.928 937.043) scale(0.40741 0.40741)"><g style="fill: rgb(0, 0, 0);"><rect width="100" height="100"/></g></g><g transform="translate(407.41 937.043) scale(0.40741 0.40741)"><g style="fill: rgb(0, 0, 0);"><rect width="100" height="100"/></g></g><g transform="translate(529.633 937.043) scale(0.40741 0.40741)"><g style="fill: rgb(0, 0, 0);"><rect width="100" height="100"/></g></g><g transform="translate(570.374 937.043) scale(0.40741 0.40741)"><g style="fill: rgb(0, 0, 0);"><rect width="100" height="100"/></g></g><g transform="translate(692.597 937.043) scale(0.40741 0.40741)"><g style="fill: rgb(0, 0, 0);"><rect width="100" height="100"/></g></g><g transform="translate(733.338 937.043) scale(0.40741 0.40741)"><g style="fill: rgb(0, 0, 0);"><rect width="100" height="100"/></g></g><g transform="translate(814.82 937.043) scale(0.40741 0.40741)"><g style="fill: rgb(0, 0, 0);"><rect width="100" height="100"/></g></g><g transform="translate(896.302 937.043) scale(0.40741 0.40741)"><g style="fill: rgb(0, 0, 0);"><rect width="100" height="100"/></g></g><g transform="translate(325.928 977.784) scale(0.40741 0.40741)"><g style="fill: rgb(0, 0, 0);"><rect width="100" height="100"/></g></g><g transform="translate(407.41 977.784) scale(0.40741 0.40741)"><g style="fill: rgb(0, 0, 0);"><rect width="100" height="100"/></g></g><g transform="translate(488.892 977.784) scale(0.40741 0.40741)"><g style="fill: rgb(0, 0, 0);"><rect width="100" height="100"/></g></g><g transform="translate(529.633 977.784) scale(0.40741 0.40741)"><g style="fill: rgb(0, 0, 0);"><rect width="100" height="100"/></g></g><g transform="translate(570.374 977.784) scale(0.40741 0.40741)"><g style="fill: rgb(0, 0, 0);"><rect width="100" height="100"/></g></g><g transform="translate(733.338 977.784) scale(0.40741 0.40741)"><g style="fill: rgb(0, 0, 0);"><rect width="100" height="100"/></g></g><g transform="translate(774.079 977.784) scale(0.40741 0.40741)"><g style="fill: rgb(0, 0, 0);"><rect width="100" height="100"/></g></g><g transform="translate(814.82 977.784) scale(0.40741 0.40741)"><g style="fill: rgb(0, 0, 0);"><rect width="100" height="100"/></g></g><g transform="translate(855.561 977.784) scale(0.40741 0.40741)"><g style="fill: rgb(0, 0, 0);"><rect width="100" height="100"/></g></g><g transform="translate(896.302 977.784) scale(0.40741 0.40741)"><g style="fill: rgb(0, 0, 0);"><rect width="100" height="100"/></g></g><g transform="translate(937.043 977.784) scale(0.40741 0.40741)"><g style="fill: rgb(0, 0, 0);"><rect width="100" height="100"/></g></g><g transform="translate(977.784 977.784) scale(0.40741 0.40741)"><g style="fill: rgb(0, 0, 0);"><rect width="100" height="100"/></g></g><g transform="translate(0 0) scale(2.85187 2.85187)"><g style="fill: rgb(0, 0, 0);"><path d="M85,0H15H0v15v70v15h15h70h15V85V15V0H85z M85,85H15V15h70V85z"/></g></g><g transform="translate(81.482 81.482) scale(1.22223 1.22223)"><g style="fill: rgb(0, 0, 0);"><rect width="100" height="100"/></g></g><g transform="translate(733.338 0) scale(2.85187 2.85187)"><g style="fill: rgb(0, 0, 0);"><path d="M85,0H15H0v15v70v15h15h70h15V85V15V0H85z M85,85H15V15h70V85z"/></g></g><g transform="translate(814.82 81.482) scale(1.22223 1.22223)"><g style="fill: rgb(0, 0, 0);"><rect width="100" height="100"/></g></g><g transform="translate(0 733.338) scale(2.85187 2.85187)"><g style="fill: rgb(0, 0, 0);"><path d="M85,0H15H0v15v70v15h15h70h15V85V15V0H85z M85,85H15V15h70V85z"/></g></g><g transform="translate(81.482 814.82) scale(1.22223 1.22223)"><g style="fill: rgb(0, 0, 0);"><rect width="100" height="100"/></g></g></g></svg>