<?xml version="1.0" encoding="UTF-8"?>
<svg width="30px" height="30px" viewBox="0 0 30 30" version="1.1" xmlns="http://www.w3.org/2000/svg" xmlns:xlink="http://www.w3.org/1999/xlink">
    <title>Page2</title>
    <g id="Page2" stroke="none" stroke-width="1" fill="none" fill-rule="evenodd">
        <path d="M19,21 L19,19.4539877 L13.4984985,19.4539877 L13.4984985,19.3803681 L16.1251251,16.7464213 C18.1991992,14.6523517 18.8158158,13.6952965 18.8158158,12.3456033 L18.8158158,12.3292434 C18.8158158,10.4233129 17.2302302,9 15.012012,9 C12.7537538,9 11,10.5296524 11,12.6400818 L11,12.6891616 L12.6976977,12.6891616 L12.6976977,12.6400818 C12.7137137,11.4458078 13.6826827,10.5132924 15.036036,10.5132924 C16.2052052,10.5132924 17.038038,11.3149284 17.046046,12.4355828 L17.046046,12.4519427 C17.046046,13.3680982 16.7017017,13.9897751 15.1641642,15.5603272 L11.0960961,19.7402863 L11.0960961,21 L19,21 Z" id="2" fill="#FFFFFF" fill-rule="nonzero"></path>
    </g>
</svg>