<?xml version="1.0" encoding="UTF-8"?>
<svg width="40px" height="40px" viewBox="0 0 40 40" version="1.1" xmlns="http://www.w3.org/2000/svg" xmlns:xlink="http://www.w3.org/1999/xlink">
    <title>DiscordIcon</title>
    <g id="DiscordIcon" stroke="none" stroke-width="1" fill="none" fill-rule="evenodd">
        <path d="M31.81,2 C33.844,2 35.5,3.656 35.5,5.708 L35.5,5.708 L35.5,38 L31.63,34.58 L29.452,32.564 L27.148,30.422 L28.102,33.752 L7.69,33.752 C5.656,33.752 4,32.096 4,30.044 L4,30.044 L4,5.708 C4,3.656 5.656,2 7.69,2 L7.69,2 Z M16.996,10.3878504 L16.9431209,10.3879555 C16.5723314,10.393297 14.3078286,10.5006286 11.938,12.278 C11.938,12.278 9.346,16.976 9.346,22.772 C9.346,22.772 10.858,25.382 14.836,25.508 C14.836,25.508 15.502,24.698 16.042,24.014 C13.756,23.33 12.892,21.89 12.892,21.89 C12.892,21.89 13.072,22.016 13.396,22.196 C13.414,22.214 13.432,22.232 13.468,22.25 C13.522,22.286 13.576,22.304 13.63,22.34 C14.08,22.592 14.53,22.79 14.944,22.952 C15.682,23.24 16.564,23.528 17.59,23.726 C18.94,23.978 20.524,24.068 22.252,23.744 C23.098,23.6 23.962,23.348 24.862,22.97 C25.492,22.736 26.194,22.394 26.932,21.908 L26.932,21.908 L26.9024881,21.9528557 C26.7301902,22.2047111 25.788069,23.4528966 23.674,24.05 C24.214,24.734 24.862,25.508 24.862,25.508 C28.6306316,25.3886316 30.2021662,23.039856 30.3571515,22.7929471 L30.37,22.772 C30.37,16.976 27.778,12.278 27.778,12.278 C25.4081714,10.5006286 23.1436686,10.393297 22.7728791,10.3879555 L22.72,10.3878504 L22.468,10.676 C25.528,11.612 26.95,12.962 26.95,12.962 C25.078,11.936 23.242,11.432 21.532,11.234 C20.236,11.09 18.994,11.126 17.896,11.27 C17.788,11.27 17.698,11.288 17.59,11.306 C16.96,11.36 15.43,11.594 13.504,12.44 C12.838,12.746 12.442,12.962 12.442,12.962 C12.442,12.962 13.936,11.54 17.176,10.604 L17.176,10.604 L16.996,10.3878504 L16.996,10.3878504 Z M16.492,17.102 C17.518,17.102 18.346,18.002 18.328,19.1 C18.328,20.198 17.518,21.098 16.492,21.098 C15.484,21.098 14.656,20.198 14.656,19.1 C14.656,18.002 15.466,17.102 16.492,17.102 Z M23.062,17.102 C24.088,17.102 24.898,18.002 24.898,19.1 C24.898,20.198 24.088,21.098 23.062,21.098 C22.054,21.098 21.226,20.198 21.226,19.1 C21.226,18.002 22.036,17.102 23.062,17.102 Z" id="Combined-Shape" fill="#000000" fill-rule="nonzero"></path>
    </g>
</svg>