<?xml version="1.0" encoding="UTF-8"?>
<svg width="40px" height="40px" viewBox="0 0 40 40" version="1.1" xmlns="http://www.w3.org/2000/svg" xmlns:xlink="http://www.w3.org/1999/xlink">
    <title>IconReddit</title>
    <g id="IconReddit" stroke="none" stroke-width="1" fill="none" fill-rule="evenodd">
        <path d="M22.7975,24.185 C22.90375,24.29 22.90375,24.46125 22.7975,24.5675 C22.21625,25.145 21.305,25.42625 20.00875,25.42625 L19.99875,25.42375 L19.98875,25.42625 C18.69375,25.42625 17.78125,25.145 17.2,24.56625 C17.09375,24.46125 17.09375,24.29 17.2,24.185 C17.305,24.08 17.4775,24.08 17.58375,24.185 C18.0575,24.65625 18.84375,24.88625 19.98875,24.88625 L19.99875,24.88875 L20.00875,24.88625 C21.1525,24.88625 21.93875,24.65625 22.41375,24.185 C22.52,24.08 22.6925,24.08 22.7975,24.185 Z M18.4975,21.1625 C18.4975,20.52875 17.98,20.01375 17.345,20.01375 C16.70875,20.01375 16.19125,20.52875 16.19125,21.1625 C16.19125,21.795 16.70875,22.3100023 17.345,22.3100023 C17.98,22.31125 18.4975,21.79625 18.4975,21.1625 Z M35,20 C35,28.28375 28.28375,35 20,35 C11.71625,35 5,28.28375 5,20 C5,11.71625 11.71625,5 20,5 C28.28375,5 35,11.71625 35,20 Z M26.8125,17.91 C26.29125,17.91 25.81875,18.11875 25.47,18.45375 C24.15,17.585 22.36375,17.0325 20.3875,16.96125 L21.46875,13.55625 L24.3975,14.2425 L24.39375,14.285 C24.39375,15.155 25.105,15.8625 25.97875,15.8625 C26.8525,15.8625 27.5625,15.155 27.5625,14.285 C27.5625,13.415 26.8525,12.7075 25.97875,12.7075 C25.3075,12.7075 24.73625,13.12625 24.505,13.7125 L21.34875,12.9725 C21.21125,12.93875 21.07,13.01875 21.0275,13.15375 L19.82125,16.95125 C17.75125,16.97625 15.8775,17.53375 14.49875,18.4275 C14.1525,18.10875 13.69375,17.90875 13.18625,17.90875 C12.11875,17.91 11.25,18.775 11.25,19.83875 C11.25,20.54625 11.63875,21.15875 12.21,21.495 C12.1725,21.7 12.1475,21.90875 12.1475,22.12 C12.1475,24.97125 15.65375,27.29125 19.96375,27.29125 C24.27375,27.29125 27.78,24.97125 27.78,22.12 C27.78,21.92 27.75875,21.72375 27.725,21.53 C28.3325,21.20375 28.75,20.5725 28.75,19.83875 C28.75,18.775 27.88125,17.91 26.8125,17.91 Z M22.66,20.015 C22.02375,20.015 21.5075,20.53 21.5075,21.16375 C21.5075,21.79625 22.025,22.31125 22.66,22.31125 C23.295,22.31125 23.8125,21.79625 23.8125,21.16375 C23.8125,20.53 23.29625,20.015 22.66,20.015 Z" id="Shape" fill="#000000" fill-rule="nonzero"></path>
    </g>
</svg>