<?xml version="1.0" encoding="UTF-8"?>
<svg width="76px" height="24px" viewBox="0 0 76 24" version="1.1" xmlns="http://www.w3.org/2000/svg" xmlns:xlink="http://www.w3.org/1999/xlink">
    <title>ContinueButton</title>
    <g id="ContinueButton" stroke="none" stroke-width="1" fill="none" fill-rule="evenodd">
        <rect id="Rectangle" stroke="#D4D4D4" stroke-width="0.25" fill="#EBEBEB" x="0.125" y="0.125" width="75.75" height="23.75" rx="4"></rect>
        <path d="M12.765625,17.359375 C14.6015625,17.359375 15.9375,16.1640625 16.15625,14.6171875 L16.1640625,14.5625 L14.828125,14.5625 L14.8125,14.625 C14.5859375,15.53125 13.875,16.15625 12.765625,16.15625 C11.359375,16.15625 10.390625,15.0390625 10.390625,13.1484375 L10.390625,13.140625 C10.390625,11.296875 11.3359375,10.125 12.75,10.125 C13.9453125,10.125 14.6015625,10.84375 14.8046875,11.65625 L14.8203125,11.71875 L16.1484375,11.71875 L16.140625,11.65625 C15.96875,10.265625 14.7734375,8.921875 12.75,8.921875 C10.4921875,8.921875 9,10.5625 9,13.125 L9,13.1328125 C9,15.71875 10.4609375,17.359375 12.765625,17.359375 Z M20.78125,17.359375 C23.0234375,17.359375 24.5390625,15.734375 24.5390625,13.140625 L24.5390625,13.125 C24.5390625,10.53125 23.015625,8.921875 20.7734375,8.921875 C18.53125,8.921875 17.015625,10.5390625 17.015625,13.125 L17.015625,13.140625 C17.015625,15.7265625 18.5234375,17.359375 20.78125,17.359375 Z M20.7890625,16.15625 C19.3515625,16.15625 18.40625,15.0546875 18.40625,13.140625 L18.40625,13.125 C18.40625,11.2265625 19.359375,10.125 20.7734375,10.125 C22.2109375,10.125 23.1484375,11.21875 23.1484375,13.125 L23.1484375,13.140625 C23.1484375,15.046875 22.21875,16.15625 20.7890625,16.15625 Z M27.265625,17.203125 L27.265625,12.421875 C27.265625,11.0390625 28.1015625,10.125 29.3828125,10.125 C30.6328125,10.125 31.25,10.8515625 31.25,12.171875 L31.25,17.203125 L32.609375,17.203125 L32.609375,11.9296875 C32.609375,10.078125 31.578125,8.921875 29.796875,8.921875 C28.5625,8.921875 27.734375,9.4765625 27.296875,10.234375 L27.265625,10.234375 L27.265625,9.078125 L25.90625,9.078125 L25.90625,17.203125 L27.265625,17.203125 Z M36.9765625,17.359375 C37.2421875,17.359375 37.53125,17.328125 37.703125,17.3046875 L37.703125,16.203125 C37.5859375,16.2109375 37.4296875,16.234375 37.265625,16.234375 C36.5390625,16.234375 36.15625,15.9921875 36.15625,15.125 L36.15625,10.203125 L37.703125,10.203125 L37.703125,9.078125 L36.15625,9.078125 L36.15625,6.8828125 L34.75,6.8828125 L34.75,9.078125 L33.5625,9.078125 L33.5625,10.203125 L34.75,10.203125 L34.75,15.1328125 C34.75,16.6875 35.484375,17.359375 36.9765625,17.359375 Z M39.921875,7.703125 C40.3984375,7.703125 40.7734375,7.3203125 40.7734375,6.8515625 C40.7734375,6.375 40.3984375,6 39.921875,6 C39.453125,6 39.0703125,6.375 39.0703125,6.8515625 C39.0703125,7.3203125 39.453125,7.703125 39.921875,7.703125 Z M40.6015625,17.203125 L40.6015625,9.078125 L39.2421875,9.078125 L39.2421875,17.203125 L40.6015625,17.203125 Z M43.8125,17.203125 L43.8125,12.421875 C43.8125,11.0390625 44.6484375,10.125 45.9296875,10.125 C47.1796875,10.125 47.796875,10.8515625 47.796875,12.171875 L47.796875,17.203125 L49.15625,17.203125 L49.15625,11.9296875 C49.15625,10.078125 48.125,8.921875 46.34375,8.921875 C45.109375,8.921875 44.28125,9.4765625 43.84375,10.234375 L43.8125,10.234375 L43.8125,9.078125 L42.453125,9.078125 L42.453125,17.203125 L43.8125,17.203125 Z M53.65625,17.359375 C54.890625,17.359375 55.71875,16.8046875 56.15625,16.046875 L56.1875,16.046875 L56.1875,17.203125 L57.546875,17.203125 L57.546875,9.078125 L56.1875,9.078125 L56.1875,13.859375 C56.1875,15.2421875 55.3515625,16.15625 54.0703125,16.15625 C52.8203125,16.15625 52.203125,15.4296875 52.203125,14.109375 L52.203125,9.078125 L50.84375,9.078125 L50.84375,14.3515625 C50.84375,16.203125 51.875,17.359375 53.65625,17.359375 Z M62.65625,17.359375 C64.4296875,17.359375 65.7578125,16.296875 66.0234375,14.953125 L66.0390625,14.875 L64.703125,14.875 L64.6796875,14.9453125 C64.4453125,15.640625 63.71875,16.15625 62.6875,16.15625 C61.2421875,16.15625 60.3203125,15.1796875 60.2890625,13.5078125 L66.140625,13.5078125 L66.140625,13.0078125 C66.140625,10.5703125 64.7890625,8.921875 62.5703125,8.921875 C60.3515625,8.921875 58.9140625,10.6484375 58.9140625,13.1640625 L58.9140625,13.171875 C58.9140625,15.7265625 60.3203125,17.359375 62.65625,17.359375 Z M64.7578125,12.4453125 L60.3125,12.4453125 C60.4609375,10.9296875 61.3828125,10.125 62.5625,10.125 C63.75,10.125 64.625,10.8671875 64.7578125,12.4453125 Z" id="continue" fill-opacity="0.5" fill="#000000" fill-rule="nonzero"></path>
    </g>
</svg>