<?xml version="1.0" encoding="UTF-8"?>
<svg width="30px" height="30px" viewBox="0 0 30 30" version="1.1" xmlns="http://www.w3.org/2000/svg" xmlns:xlink="http://www.w3.org/1999/xlink">
    <title>Page3</title>
    <g id="Page3" stroke="none" stroke-width="1" fill="none" fill-rule="evenodd">
        <path d="M15.5299145,21 C18.1452991,21 20,19.583501 20,17.5955734 L20,17.5794769 C20,15.9537223 18.7863248,14.9235412 16.974359,14.7706237 L16.974359,14.7303823 C18.4786325,14.4325956 19.5726496,13.4668008 19.5726496,12.0261569 L19.5726496,12.0100604 C19.5726496,10.22334 17.965812,9 15.5128205,9 C13.1025641,9 11.4615385,10.2796781 11.2735043,12.2193159 L11.2649573,12.2997988 L13.0598291,12.2997988 L13.0683761,12.2273642 C13.1880342,11.1488934 14.1452991,10.472837 15.5128205,10.472837 C16.9059829,10.472837 17.7094017,11.1247485 17.7094017,12.2434608 L17.7094017,12.2595573 C17.7094017,13.3380282 16.7521368,14.1187123 15.3418803,14.1187123 L13.8974359,14.1187123 L13.8974359,15.5191147 L15.3931624,15.5191147 C17.042735,15.5191147 18.0512821,16.2515091 18.0512821,17.5633803 L18.0512821,17.5794769 C18.0512821,18.7062374 17.034188,19.4949698 15.5299145,19.4949698 C14,19.4949698 12.965812,18.7706237 12.8461538,17.7404427 L12.8376068,17.6519115 L11,17.6519115 L11.008547,17.7565392 C11.1794872,19.6478873 12.8974359,21 15.5299145,21 Z" id="3" fill="#FFFFFF" fill-rule="nonzero"></path>
    </g>
</svg>