<?xml version="1.0" encoding="UTF-8"?>
<svg width="400px" height="400px" viewBox="0 0 400 400" version="1.1" xmlns="http://www.w3.org/2000/svg" xmlns:xlink="http://www.w3.org/1999/xlink">
    <title>CachedPhotos</title>
    <g id="CachedPhotos" stroke="none" stroke-width="1" fill="none" fill-rule="evenodd">
        <g id="Group-3" transform="translate(28.000000, 28.000000)">
            <g id="Group-2" transform="translate(91.000000, 0.000000)">
                <rect id="Rectangle-Copy-4" stroke="#00AEEF" stroke-width="5" fill-opacity="0.5" fill="#00AEEF" x="0" y="0" width="162" height="162" rx="24"></rect>
                <g id="Group" transform="translate(36.000000, 32.000000)">
                    <path d="M49.5099267,1.13342408e-15 C59.8912906,-7.73601534e-16 66.1155516,1.40201775 71.5039535,4.04641935 L60.7567202,19.3945156 C57.7342815,18.0884777 54.1360906,17.4 48.2289487,17.4 L42.2510513,17.4 C35.2426879,17.4 31.4843975,18.3690994 28.0817309,20.1888654 C24.6790642,22.0086315 22.0086315,24.6790642 20.1888654,28.0817309 C18.4145935,31.3993309 17.4489866,35.0549956 17.4018152,41.7314727 L17.4,42.2510513 L17.4,55.1889487 C17.4,62.1973121 18.3690994,65.9556025 20.1888654,69.3582691 C22.0086315,72.7609358 24.6790642,75.4313685 28.0817309,77.2511346 C31.3993309,79.0254065 35.0549956,79.9910134 41.7314727,80.0381848 L42.2510513,80.04 L48.2289487,80.04 C55.2373121,80.04 58.9956025,79.0709006 62.3982691,77.2511346 C65.8009358,75.4313685 68.4713685,72.7609358 70.2911346,69.3582691 C72.0654065,66.0406691 73.0310134,62.3850044 73.0781848,55.7085273 L73.08,55.1889487 L73.08,50.331 L89.2675072,27.2139919 C90.0673388,30.9293418 90.48,35.3379195 90.48,40.9700733 L90.48,56.4699267 C90.48,67.6125178 88.8648344,73.9660041 85.831891,79.6371152 C82.7989475,85.3082264 78.3482264,89.7589475 72.6771152,92.791891 C67.0060041,95.8248344 60.6525178,97.44 49.5099267,97.44 L40.9700733,97.44 C29.8274822,97.44 23.4739959,95.8248344 17.8028848,92.791891 C12.1317736,89.7589475 7.68105246,85.3082264 4.64810905,79.6371152 C1.61516563,73.9660041 6.08957796e-16,67.6125178 -7.55616055e-16,56.4699267 L7.55616055e-16,40.9700733 C-6.08957796e-16,29.8274822 1.61516563,23.4739959 4.64810905,17.8028848 C7.68105246,12.1317736 12.1317736,7.68105246 17.8028848,4.64810905 C23.4739959,1.61516563 29.8274822,9.13436694e-16 40.9700733,-1.13342408e-15 L49.5099267,1.13342408e-15 Z" id="Combined-Shape" fill="#FFFFFF"></path>
                    <path d="M83.6439842,11.3128492 C86.7927242,13.5176207 87.5579619,17.8574994 85.3531904,21.0062394 L51.8196176,68.8971446 C50.6179964,70.6132375 48.782173,71.6213463 46.8506236,71.8265229 C44.4709709,72.2595442 41.9320703,71.4382377 40.2659097,69.4525848 L24.6076035,50.7917422 C22.136791,47.8471425 22.5208714,43.4570836 25.4654711,40.9862711 C28.4100707,38.5154586 32.8001297,38.899539 35.2709422,41.8441386 L45.3541108,53.8605507 L73.9505939,13.0220554 C76.1553655,9.87331538 80.4952441,9.10807768 83.6439842,11.3128492 Z" id="Combined-Shape" fill="#00AEEF"></path>
                </g>
            </g>
            <g id="Group-2-Copy" transform="translate(182.000000, 182.000000)">
                <rect id="Rectangle-Copy-4" stroke="#00AEEF" stroke-width="5" fill-opacity="0.5" fill="#00AEEF" x="0" y="0" width="162" height="162" rx="24"></rect>
                <g id="Group" transform="translate(36.000000, 32.000000)">
                    <path d="M49.5099267,1.13342408e-15 C59.8912906,-7.73601534e-16 66.1155516,1.40201775 71.5039535,4.04641935 L60.7567202,19.3945156 C57.7342815,18.0884777 54.1360906,17.4 48.2289487,17.4 L42.2510513,17.4 C35.2426879,17.4 31.4843975,18.3690994 28.0817309,20.1888654 C24.6790642,22.0086315 22.0086315,24.6790642 20.1888654,28.0817309 C18.4145935,31.3993309 17.4489866,35.0549956 17.4018152,41.7314727 L17.4,42.2510513 L17.4,55.1889487 C17.4,62.1973121 18.3690994,65.9556025 20.1888654,69.3582691 C22.0086315,72.7609358 24.6790642,75.4313685 28.0817309,77.2511346 C31.3993309,79.0254065 35.0549956,79.9910134 41.7314727,80.0381848 L42.2510513,80.04 L48.2289487,80.04 C55.2373121,80.04 58.9956025,79.0709006 62.3982691,77.2511346 C65.8009358,75.4313685 68.4713685,72.7609358 70.2911346,69.3582691 C72.0654065,66.0406691 73.0310134,62.3850044 73.0781848,55.7085273 L73.08,55.1889487 L73.08,50.331 L89.2675072,27.2139919 C90.0673388,30.9293418 90.48,35.3379195 90.48,40.9700733 L90.48,56.4699267 C90.48,67.6125178 88.8648344,73.9660041 85.831891,79.6371152 C82.7989475,85.3082264 78.3482264,89.7589475 72.6771152,92.791891 C67.0060041,95.8248344 60.6525178,97.44 49.5099267,97.44 L40.9700733,97.44 C29.8274822,97.44 23.4739959,95.8248344 17.8028848,92.791891 C12.1317736,89.7589475 7.68105246,85.3082264 4.64810905,79.6371152 C1.61516563,73.9660041 6.08957796e-16,67.6125178 -7.55616055e-16,56.4699267 L7.55616055e-16,40.9700733 C-6.08957796e-16,29.8274822 1.61516563,23.4739959 4.64810905,17.8028848 C7.68105246,12.1317736 12.1317736,7.68105246 17.8028848,4.64810905 C23.4739959,1.61516563 29.8274822,9.13436694e-16 40.9700733,-1.13342408e-15 L49.5099267,1.13342408e-15 Z" id="Combined-Shape" fill="#FFFFFF"></path>
                    <path d="M83.6439842,11.3128492 C86.7927242,13.5176207 87.5579619,17.8574994 85.3531904,21.0062394 L51.8196176,68.8971446 C50.6179964,70.6132375 48.782173,71.6213463 46.8506236,71.8265229 C44.4709709,72.2595442 41.9320703,71.4382377 40.2659097,69.4525848 L24.6076035,50.7917422 C22.136791,47.8471425 22.5208714,43.4570836 25.4654711,40.9862711 C28.4100707,38.5154586 32.8001297,38.899539 35.2709422,41.8441386 L45.3541108,53.8605507 L73.9505939,13.0220554 C76.1553655,9.87331538 80.4952441,9.10807768 83.6439842,11.3128492 Z" id="Combined-Shape" fill="#00AEEF"></path>
                </g>
            </g>
            <g id="Group-2-Copy-2" transform="translate(0.000000, 182.000000)">
                <rect id="Rectangle-Copy-4" stroke="#00AEEF" stroke-width="5" fill-opacity="0.5" fill="#00AEEF" x="0" y="0" width="162" height="162" rx="24"></rect>
                <g id="Group" transform="translate(36.000000, 32.000000)">
                    <path d="M49.5099267,1.13342408e-15 C59.8912906,-7.73601534e-16 66.1155516,1.40201775 71.5039535,4.04641935 L60.7567202,19.3945156 C57.7342815,18.0884777 54.1360906,17.4 48.2289487,17.4 L42.2510513,17.4 C35.2426879,17.4 31.4843975,18.3690994 28.0817309,20.1888654 C24.6790642,22.0086315 22.0086315,24.6790642 20.1888654,28.0817309 C18.4145935,31.3993309 17.4489866,35.0549956 17.4018152,41.7314727 L17.4,42.2510513 L17.4,55.1889487 C17.4,62.1973121 18.3690994,65.9556025 20.1888654,69.3582691 C22.0086315,72.7609358 24.6790642,75.4313685 28.0817309,77.2511346 C31.3993309,79.0254065 35.0549956,79.9910134 41.7314727,80.0381848 L42.2510513,80.04 L48.2289487,80.04 C55.2373121,80.04 58.9956025,79.0709006 62.3982691,77.2511346 C65.8009358,75.4313685 68.4713685,72.7609358 70.2911346,69.3582691 C72.0654065,66.0406691 73.0310134,62.3850044 73.0781848,55.7085273 L73.08,55.1889487 L73.08,50.331 L89.2675072,27.2139919 C90.0673388,30.9293418 90.48,35.3379195 90.48,40.9700733 L90.48,56.4699267 C90.48,67.6125178 88.8648344,73.9660041 85.831891,79.6371152 C82.7989475,85.3082264 78.3482264,89.7589475 72.6771152,92.791891 C67.0060041,95.8248344 60.6525178,97.44 49.5099267,97.44 L40.9700733,97.44 C29.8274822,97.44 23.4739959,95.8248344 17.8028848,92.791891 C12.1317736,89.7589475 7.68105246,85.3082264 4.64810905,79.6371152 C1.61516563,73.9660041 6.08957796e-16,67.6125178 -7.55616055e-16,56.4699267 L7.55616055e-16,40.9700733 C-6.08957796e-16,29.8274822 1.61516563,23.4739959 4.64810905,17.8028848 C7.68105246,12.1317736 12.1317736,7.68105246 17.8028848,4.64810905 C23.4739959,1.61516563 29.8274822,9.13436694e-16 40.9700733,-1.13342408e-15 L49.5099267,1.13342408e-15 Z" id="Combined-Shape" fill="#FFFFFF"></path>
                    <path d="M83.6439842,11.3128492 C86.7927242,13.5176207 87.5579619,17.8574994 85.3531904,21.0062394 L51.8196176,68.8971446 C50.6179964,70.6132375 48.782173,71.6213463 46.8506236,71.8265229 C44.4709709,72.2595442 41.9320703,71.4382377 40.2659097,69.4525848 L24.6076035,50.7917422 C22.136791,47.8471425 22.5208714,43.4570836 25.4654711,40.9862711 C28.4100707,38.5154586 32.8001297,38.899539 35.2709422,41.8441386 L45.3541108,53.8605507 L73.9505939,13.0220554 C76.1553655,9.87331538 80.4952441,9.10807768 83.6439842,11.3128492 Z" id="Combined-Shape" fill="#00AEEF"></path>
                </g>
            </g>
        </g>
    </g>
</svg>