<?xml version="1.0" encoding="UTF-8"?>
<svg width="66px" height="24px" viewBox="0 0 66 24" version="1.1" xmlns="http://www.w3.org/2000/svg" xmlns:xlink="http://www.w3.org/1999/xlink">
    <title>NextButton</title>
    <g id="NextButton" stroke="none" stroke-width="1" fill="none" fill-rule="evenodd">
        <rect id="Rectangle" fill="#B3B6C4" x="0" y="0" width="66" height="24" rx="3"></rect>
        <path d="M20.3515625,17 L20.3515625,12.21875 C20.3515625,10.8359375 21.1875,9.921875 22.46875,9.921875 C23.71875,9.921875 24.3359375,10.6484375 24.3359375,11.96875 L24.3359375,17 L25.6953125,17 L25.6953125,11.7265625 C25.6953125,9.875 24.6640625,8.71875 22.8828125,8.71875 C21.6484375,8.71875 20.8203125,9.2734375 20.3828125,10.03125 L20.3515625,10.03125 L20.3515625,8.875 L18.9921875,8.875 L18.9921875,17 L20.3515625,17 Z M30.765625,17.15625 C32.5390625,17.15625 33.8671875,16.09375 34.1328125,14.75 L34.1484375,14.671875 L32.8125,14.671875 L32.7890625,14.7421875 C32.5546875,15.4375 31.828125,15.953125 30.796875,15.953125 C29.3515625,15.953125 28.4296875,14.9765625 28.3984375,13.3046875 L34.25,13.3046875 L34.25,12.8046875 C34.25,10.3671875 32.8984375,8.71875 30.6796875,8.71875 C28.4609375,8.71875 27.0234375,10.4453125 27.0234375,12.9609375 L27.0234375,12.96875 C27.0234375,15.5234375 28.4296875,17.15625 30.765625,17.15625 Z M32.8671875,12.2421875 L28.421875,12.2421875 C28.5703125,10.7265625 29.4921875,9.921875 30.671875,9.921875 C31.859375,9.921875 32.734375,10.6640625 32.8671875,12.2421875 Z M36.3359375,17 L38.296875,13.90625 L38.328125,13.90625 L40.2734375,17 L41.78125,17 L39.078125,12.8828125 L41.8203125,8.875 L40.3046875,8.875 L38.375,11.921875 L38.34375,11.921875 L36.390625,8.875 L34.875,8.875 L37.59375,12.9375 L34.828125,17 L36.3359375,17 Z M45.59375,17.15625 C45.859375,17.15625 46.1484375,17.125 46.3203125,17.1015625 L46.3203125,16 C46.203125,16.0078125 46.046875,16.03125 45.8828125,16.03125 C45.15625,16.03125 44.7734375,15.7890625 44.7734375,14.921875 L44.7734375,10 L46.3203125,10 L46.3203125,8.875 L44.7734375,8.875 L44.7734375,6.6796875 L43.3671875,6.6796875 L43.3671875,8.875 L42.1796875,8.875 L42.1796875,10 L43.3671875,10 L43.3671875,14.9296875 C43.3671875,16.484375 44.1015625,17.15625 45.59375,17.15625 Z" id="next" fill-opacity="0.5" fill="#000000" fill-rule="nonzero"></path>
    </g>
</svg>