<?xml version="1.0" encoding="UTF-8"?>
<svg width="120px" height="120px" viewBox="0 0 120 120" version="1.1" xmlns="http://www.w3.org/2000/svg" xmlns:xlink="http://www.w3.org/1999/xlink">
    <title>BlueCheck</title>
    <g id="BlueCheck" stroke="none" stroke-width="1" fill="none" fill-rule="evenodd">
        <path d="M92.7775281,111 C98.7752809,111 103.311798,109.461495 106.387079,106.384486 C109.46236,103.307476 111,98.8257448 111,92.9392917 L111,27.0607083 C111,21.1742552 109.46236,16.6925239 106.387079,13.6155143 C103.311798,10.5385048 98.7752809,9 92.7775281,9 L27.2224719,9 C21.3011236,9 16.7837079,10.5289488 13.6702247,13.5868465 C10.5567416,16.6447442 9,21.1360315 9,27.0607083 L9,92.9392917 C9,98.8639685 10.5567416,103.355256 13.6702247,106.413153 C16.7837079,109.471051 21.3011236,111 27.2224719,111 L92.7775281,111 Z" id="􀃳" fill="#00AEEF" fill-rule="nonzero"></path>
        <path d="M54.0922064,87 C52.9886572,87 51.9992682,86.7525196 51.1240395,86.2575588 C50.2488108,85.762598 49.4116356,85.0201568 48.6125137,84.0302352 L35.5411636,68.2105263 C35.0084157,67.5632699 34.6183681,66.9160134 34.3710209,66.268757 C34.1236736,65.6215006 34,64.9361702 34,64.212766 C34,62.7278835 34.5137212,61.4714446 35.5411636,60.443449 C36.5686059,59.4154535 37.8243688,58.9014558 39.3084523,58.9014558 C40.1836809,58.9014558 40.9828028,59.0823068 41.7058178,59.444009 C42.4288328,59.8057111 43.1328211,60.4244121 43.8177827,61.300112 L53.920966,73.9787234 L75.8968167,38.9697648 C77.1145262,36.9899216 78.6556897,36 80.5203074,36 C81.9663374,36 83.241127,36.4568869 84.3446762,37.3706607 C85.4482254,38.2844345 86,39.4837626 86,40.968645 C86,41.6159015 85.866813,42.2821948 85.6004391,42.9675252 C85.3340651,43.6528555 84.9915843,44.300112 84.5729967,44.9092945 L59.3435785,84.0302352 C58.6966703,84.9820829 57.9260885,85.7150056 57.0318332,86.2290034 C56.1375778,86.7430011 55.1577022,87 54.0922064,87 Z" id="Path" fill="#FFFFFF"></path>
    </g>
</svg>