<?xml version="1.0" encoding="UTF-8"?>
<svg width="40px" height="40px" viewBox="0 0 40 40" version="1.1" xmlns="http://www.w3.org/2000/svg" xmlns:xlink="http://www.w3.org/1999/xlink">
    <title>IconGitHub</title>
    <g id="IconGitHub" stroke="none" stroke-width="1" fill="none" fill-rule="evenodd">
        <path d="M20.0001242,5 C11.7168702,5 5,11.8855922 5,20.3797582 C5,27.1749382 9.29799213,32.9399281 15.2580004,34.9735667 C16.0076589,35.1159341 16.2828814,34.6399328 16.2828814,34.2337144 C16.2828814,33.8669718 16.2689712,32.6554479 16.2625129,31.3703207 C12.0894639,32.3006753 11.2089008,29.5557089 11.2089008,29.5557089 C10.5265576,27.778026 9.54340716,27.3053356 9.54340716,27.3053356 C8.1824467,26.3507861 9.64599462,26.3703966 9.64599462,26.3703966 C11.1522666,26.4788913 11.9453943,27.955285 11.9453943,27.955285 C13.283254,30.3065125 15.4544815,29.6267653 16.3104533,29.2337904 C16.4450838,28.2397651 16.8338232,27.5612913 17.2628027,27.1772304 C13.9310702,26.7883304 10.4286897,25.4695851 10.4286897,19.5764901 C10.4286897,17.8973693 11.0146554,16.5253954 11.9742082,15.4483437 C11.8184641,15.0609719 11.30503,13.4967128 12.1195198,11.378265 C12.1195198,11.378265 13.3791348,10.9649155 16.245622,12.9547488 C17.4421445,12.6139838 18.7253571,12.4430919 20.0001242,12.4372342 C21.2748913,12.4430919 22.5590975,12.6139838 23.7578555,12.9547488 C26.6208652,10.9649155 27.8787415,11.378265 27.8787415,11.378265 C28.6952184,13.4967128 28.1815359,15.0609719 28.0257918,15.4483437 C28.9875802,16.5253954 29.5695715,17.8973693 29.5695715,19.5764901 C29.5695715,25.4835927 26.0604844,26.7842555 22.7203064,27.1650056 C23.2583316,27.6422803 23.7377355,28.578238 23.7377355,30.0131184 C23.7377355,32.0709519 23.7203478,33.7271512 23.7203478,34.2337144 C23.7203478,34.642989 23.990354,35.1225559 24.7506934,34.9715292 C30.7074726,32.9355985 35,27.1726461 35,20.3797582 C35,11.8855922 28.2841234,5 20.0001242,5" id="Fill-5" fill="#000000"></path>
    </g>
</svg>