<?xml version="1.0" encoding="UTF-8"?>
<svg width="256px" height="256px" viewBox="0 0 256 256" version="1.1" xmlns="http://www.w3.org/2000/svg" xmlns:xlink="http://www.w3.org/1999/xlink">
    <title>AppIconNewSmall</title>
    <defs>
        <radialGradient cx="50%" cy="50.2863317%" fx="50%" fy="50.2863317%" r="71.5582718%" id="radialGradient-1">
            <stop stop-color="#00AEEF" offset="0%"></stop>
            <stop stop-color="#009FEF" offset="100%"></stop>
        </radialGradient>
    </defs>
    <g id="AppIconNewSmall" stroke="none" stroke-width="1" fill="none" fill-rule="evenodd">
        <g id="Group">
            <rect id="Rectangle" fill="url(#radialGradient-1)" x="0" y="0" width="256" height="256"></rect>
            <path d="M60,100 L60,75 C60,66.7157288 66.7157288,60 75,60 L100,60 L100,60" id="Path-3" stroke="#FFFFFF" stroke-width="12.5" stroke-linecap="round"></path>
            <path d="M156,100 L156,75 C156,66.7157288 162.715729,60 171,60 L196,60 L196,60" id="Path-3-Copy" stroke="#FFFFFF" stroke-width="12.5" stroke-linecap="round" transform="translate(176.000000, 80.000000) rotate(-270.000000) translate(-176.000000, -80.000000) "></path>
            <path d="M156,196 L156,171 C156,162.715729 162.715729,156 171,156 L196,156 L196,156" id="Path-3-Copy-2" stroke="#FFFFFF" stroke-width="12.5" stroke-linecap="round" transform="translate(176.000000, 176.000000) rotate(-180.000000) translate(-176.000000, -176.000000) "></path>
            <path d="M60,196 L60,171 C60,162.715729 66.7157288,156 75,156 L100,156 L100,156" id="Path-3-Copy-3" stroke="#FFFFFF" stroke-width="12.5" stroke-linecap="round" transform="translate(80.000000, 176.000000) rotate(-90.000000) translate(-80.000000, -176.000000) "></path>
        </g>
    </g>
</svg>