<svg fill="none" height="100" viewBox="0 0 100 100" width="100" xmlns="http://www.w3.org/2000/svg" xmlns:xlink="http://www.w3.org/1999/xlink"><clipPath id="a"><path d="m0 0h100v100h-100z"/></clipPath><g clip-path="url(#a)"><path d="m101 51.2145c0-6.0761-4.9765-10.9013-11.0411-10.9013-2.986 0-5.702 1.1609-7.6926 3.038-7.6014-5.3616-18.01-8.846-29.5943-9.2924l5.0676-23.4118 16.4715 3.4845c.1822 4.1107 3.6202 7.4169 7.8747 7.4169 4.3439 0 7.8731-3.4844 7.8731-7.775 0-4.28895-3.5292-7.7734-7.8731-7.7734-3.077 0-5.793 1.78719-7.0599 4.3789l-18.371-3.84257c-.5432-.08995-1.0864-.00001-1.4491.26816-.4521.26816-.7237.71454-.8131 1.25087l-5.6126 26.09174c-11.7648.3581-22.3539 3.8425-30.0464 9.2941-2.0718-1.9538-4.8276-3.0422-7.6925-3.0381-6.15408 0-11.0412 4.9135-11.0412 10.9014 0 4.4671 2.71432 8.2198 6.51673 9.9187-.1822 1.071-.2716 2.1436-.2716 3.3062 0 16.7976 19.82007 30.4706 44.25567 30.4706 24.4357 0 44.2558-13.583 44.2558-30.4706 0-1.0727-.0911-2.2352-.2716-3.3062 3.8007-1.6989 6.515-5.5415 6.515-10.0087zm-75.8407 7.7734c0-4.2889 3.5291-7.7734 7.8748-7.7734 4.3439 0 7.873 3.4845 7.873 7.7734 0 4.289-3.5291 7.7751-7.873 7.7751-4.3457.0883-7.8748-3.4861-7.8748-7.7751zm44.0752 20.6419c-5.4303 5.3616-15.7477 5.7197-18.7337 5.7197-3.077 0-13.3944-.4481-18.7353-5.7197-.8131-.8045-.8131-2.0554 0-2.8599.8148-.8028 2.0817-.8028 2.8965 0 3.4397 3.3962 10.6801 4.5571 15.8388 4.5571 5.1588 0 12.4886-1.1609 15.8372-4.5571.8148-.8028 2.0817-.8028 2.8965 0 .7237.8045.7237 2.0554 0 2.8599zm-1.4491-12.7785c-4.3439 0-7.873-3.4845-7.873-7.7734 0-4.289 3.5291-7.7734 7.873-7.7734 4.3457 0 7.8748 3.4844 7.8748 7.7734 0 4.199-3.5291 7.7734-7.8748 7.7734z" fill="#fff"/></g></svg>