<?xml version="1.0" encoding="UTF-8"?>
<svg width="40px" height="40px" viewBox="0 0 40 40" version="1.1" xmlns="http://www.w3.org/2000/svg" xmlns:xlink="http://www.w3.org/1999/xlink">
    <title>IconDiscord</title>
    <g id="IconDiscord" stroke="none" stroke-width="1" fill="none" fill-rule="evenodd">
        <path d="M33.3220626,8.32104722 C30.9638077,7.24673539 28.4349359,6.45522979 25.790843,6.00190165 C25.7426909,5.99315256 25.6945909,6.01501701 25.6697853,6.05874695 C25.3445501,6.63305727 24.9842952,7.38229198 24.7320177,7.97118705 C21.8881248,7.54847815 19.0588235,7.54847815 16.2732447,7.97118705 C16.0209151,7.36920197 15.6475799,6.63305727 15.3208855,6.05874695 C15.2960799,6.01647606 15.2479799,5.99461161 15.1998278,6.00190165 C12.5571941,6.45378109 10.0283223,7.2452867 7.66860826,8.32104722 C7.64818009,8.32979114 7.63067023,8.34438158 7.6190491,8.36331811 C2.82231189,15.4781764 1.50828507,22.4181563 2.1529027,29.272094 C2.15581945,29.305621 2.17477856,29.3376993 2.20103032,29.3580845 C5.36578043,31.6655473 8.43138148,33.066385 11.4400546,33.9948959 C11.4882068,34.0094863 11.5392251,33.9919985 11.5698673,33.952625 C12.2815701,32.9876897 12.9159898,31.9702392 13.4599419,30.9002735 C13.4920433,30.8376174 13.4614011,30.7632682 13.3957912,30.7384852 C12.3894955,30.3594958 11.4312997,29.8974134 10.5095828,29.3726749 C10.4366772,29.330404 10.4308406,29.226874 10.4979096,29.1773079 C10.691873,29.0330074 10.8858885,28.8828603 11.0710969,28.7312646 C11.1046054,28.7035842 11.1512983,28.6977376 11.1906955,28.7152255 C17.2459799,31.4600394 23.8015459,31.4600394 29.7853838,28.7152255 C29.824781,28.6962889 29.8714739,28.7021355 29.9064415,28.7298159 C30.0917021,28.8814116 30.2856655,29.0330074 30.481088,29.1773079 C30.548157,29.226874 30.5437795,29.330404 30.4708739,29.3726749 C29.549157,29.9076061 28.5909613,30.3594958 27.5832064,30.7370365 C27.5175965,30.7618195 27.4884134,30.8376174 27.5205148,30.9002735 C28.0761402,31.9687388 28.7105599,32.9861893 29.4091303,33.9511763 C29.4383134,33.9919985 29.4907908,34.0094863 29.5389429,33.9948959 C32.5622077,33.066385 35.6277879,31.6655473 38.7925385,29.3580845 C38.8202624,29.3376993 38.8377723,29.3070697 38.8406906,29.2735427 C39.6121666,21.3496393 37.5485047,14.4665724 33.3701626,8.36476681 C33.3599485,8.34438158 33.3424907,8.32979114 33.3220626,8.32104722 Z M14.3642011,25.098762 C12.5411434,25.098762 11.0389955,23.4370555 11.0389955,21.396308 C11.0389955,19.3555605 12.5120124,17.693854 14.3642011,17.693854 C16.2309292,17.693854 17.7185376,19.3701509 17.6893545,21.396308 C17.6893545,23.4370555 16.2163376,25.098762 14.3642011,25.098762 Z M26.6585712,25.098762 C24.8355656,25.098762 23.3334177,23.4370555 23.3334177,21.396308 C23.3334177,19.3555605 24.8063825,17.693854 26.6585712,17.693854 C28.5253514,17.693854 30.0129077,19.3701509 29.9837767,21.396308 C29.9837767,23.4370555 28.5253514,25.098762 26.6585712,25.098762 Z" id="Shape" fill="#000000" fill-rule="nonzero"></path>
    </g>
</svg>