<svg fill="none" height="100" viewBox="0 0 100 100" width="100" xmlns="http://www.w3.org/2000/svg"><path d="m89.7623 29.4137c.061.8896.061 1.7793.061 2.6771 0 27.3576-20.6378 58.9092-58.375 58.9092v-.0164c-11.1477.0164-22.06378-3.206-31.4483-9.2818 1.62096.1968 3.25005.2952 4.8832.2993 9.2383.0082 18.2125-3.1199 25.4804-8.8801-8.7792-.1681-16.4778-5.9446-19.1672-14.3778 3.0754.5986 6.2442.4756 9.2627-.3566-9.5714-1.9515-16.45747-10.438-16.45747-20.2938 0-.0902 0-.1762 0-.2623 2.85191 1.603 6.04507 2.4926 9.31137 2.591-9.01481-6.0799-11.7936-18.1824-6.34977-27.6446 10.41637 12.9347 25.78507 20.798 42.28317 21.6303-1.6535-7.191.6053-14.7263 5.9354-19.7813 8.2633-7.83868 21.2594-7.43691 29.027.8979 4.5948-.9143 8.9986-2.6157 13.0287-5.0263-1.5316 4.7926-4.737 8.8636-9.0189 11.4506 4.0666-.4838 8.0398-1.5825 11.7814-3.2593-2.7544 4.1653-6.2238 7.7936-10.2377 10.7249z" fill="#fff"/></svg>