<?xml version="1.0" encoding="UTF-8"?>
<svg width="30px" height="30px" viewBox="0 0 30 30" version="1.1" xmlns="http://www.w3.org/2000/svg" xmlns:xlink="http://www.w3.org/1999/xlink">
    <title>Page6</title>
    <g id="Page6" stroke="none" stroke-width="1" fill="none" fill-rule="evenodd">
        <path d="M14.6645338,21 C17.1654479,21 19,19.334004 19,17.0160966 L19,17 C19,14.8028169 17.3628885,13.1851107 15.0923218,13.1851107 C13.4798903,13.1851107 12.2787934,14.0060362 11.809872,15.0523139 L11.7687386,15.0523139 C11.7687386,14.9476861 11.7687386,14.8430584 11.7769653,14.7384306 C11.8510055,12.4366197 12.6819013,10.5130785 14.7221207,10.5130785 C15.857404,10.5130785 16.630713,11.0603622 16.9680073,11.9295775 L16.9926874,12.0100604 L18.8436929,12.0100604 L18.8190128,11.9134809 C18.440585,10.1830986 16.8528336,9 14.738574,9 C11.7687386,9 10,11.2857143 10,15.1569416 L10,15.1730382 C10,19.3501006 12.23766,21 14.6645338,21 Z M14.6398537,19.4869215 C13.2330896,19.4869215 12.130713,18.4004024 12.130713,17.0241449 L12.130713,17.0160966 C12.130713,15.639839 13.2248629,14.6498994 14.6645338,14.6498994 C16.1124314,14.6498994 17.1654479,15.6478873 17.1654479,17.0482897 L17.1654479,17.0643863 C17.1654479,18.416499 16.0466179,19.4869215 14.6398537,19.4869215 Z" id="6" fill="#FFFFFF" fill-rule="nonzero"></path>
    </g>
</svg>