<?xml version="1.0" encoding="UTF-8"?>
<svg width="40px" height="40px" viewBox="0 0 40 40" version="1.1" xmlns="http://www.w3.org/2000/svg" xmlns:xlink="http://www.w3.org/1999/xlink">
    <title>IconEmail</title>
    <g id="IconEmail" stroke="none" stroke-width="1" fill="none" fill-rule="evenodd">
        <path d="M32.8753894,6 C36.1536065,6 37.9086824,7.69450273 37.996531,10.9360926 L38,11.1952191 L38,28.8047809 C38,32.1253932 36.3460619,33.9049343 33.4839251,33.9962947 L33.2492212,34 L8.12461059,34 C4.84639348,34 3.09131761,32.3054973 3.00346902,29.0639074 L3,28.8047809 L3,11.1952191 C3,7.85908996 4.65393809,6.09424904 7.51607485,6.00367302 L7.75077882,6 L32.8753894,6 Z M23.0634288,28.7438811 C22.947362,28.5725524 22.7566809,28.5725524 22.6392324,28.7438811 C22.1141685,29.5128205 21.2450496,29.8881119 19.9807509,29.8881119 L19.9807509,29.8881119 L19.969697,29.8921911 L19.958643,29.8881119 C18.6929626,29.8881119 17.8238437,29.5128205 17.3001615,28.7438811 C17.182713,28.5725524 16.9920319,28.5725524 16.8759652,28.7438811 C16.7585167,28.9152098 16.7585167,29.1946387 16.8759652,29.3659674 C17.5184776,30.3103147 18.527153,30.7692308 19.958643,30.7692308 L19.958643,30.7692308 L19.969697,30.7651515 L19.9807509,30.7692308 C21.4136227,30.7692308 22.4209164,30.3103147 23.0634288,29.368007 C23.1808773,29.1946387 23.1808773,28.9152098 23.0634288,28.7438811 Z M11.75,20 C10.1391695,20 8.83333333,21.3058361 8.83333333,22.9166667 C8.83333333,24.5274972 10.1391695,25.8333333 11.75,25.8333333 C13.3608305,25.8333333 14.6666667,24.5274972 14.6666667,22.9166667 C14.6666667,21.3058361 13.3608305,20 11.75,20 Z M29.25,20 C27.6391695,20 26.3333333,21.3058361 26.3333333,22.9166667 C26.3333333,24.5274972 27.6391695,25.8333333 29.25,25.8333333 C30.8608305,25.8333333 32.1666667,24.5274972 32.1666667,22.9166667 C32.1666667,21.3058361 30.8608305,20 29.25,20 Z M32.5860566,9.5 L8.38344227,9.5 C8.18899782,9.5 8.00313181,9.51674107 7.83227805,9.54394531 L7.66666667,9.57440476 L18.7690632,20.2886905 C19.4095861,20.8839286 19.9433551,21.1666667 20.5076253,21.1666667 C21.0205981,21.1666667 21.5083635,20.9452971 22.074043,20.4466566 L22.2461874,20.2886905 L33.3333333,9.58928571 C33.1045752,9.5297619 32.8605664,9.5 32.5860566,9.5 Z" id="Combined-Shape" fill="#000000" fill-rule="nonzero"></path>
    </g>
</svg>