<?xml version="1.0" encoding="UTF-8"?>
<svg width="40px" height="40px" viewBox="0 0 40 40" version="1.1" xmlns="http://www.w3.org/2000/svg" xmlns:xlink="http://www.w3.org/1999/xlink">
    <title>RedditIcon</title>
    <g id="RedditIcon" stroke="none" stroke-width="1" fill="none" fill-rule="evenodd">
        <path d="M23.357,25.022 C23.4845,25.148 23.4845,25.3535 23.357,25.481 C22.6595,26.174 21.566,26.5115 20.0105,26.5115 L19.9985,26.5085 L19.9865,26.5115 C18.4325,26.5115 17.3375,26.174 16.64,25.4795 C16.5125,25.3535 16.5125,25.148 16.64,25.022 C16.766,24.896 16.973,24.896 17.1005,25.022 C17.669,25.5875 18.6125,25.8635 19.9865,25.8635 L19.9985,25.8665 L20.0105,25.8635 C21.383,25.8635 22.3265,25.5875 22.8965,25.022 C23.024,24.896 23.231,24.896 23.357,25.022 Z M18.197,21.395 C18.197,20.6345 17.576,20.0165 16.814,20.0165 C16.0505,20.0165 15.4295,20.6345 15.4295,21.395 C15.4295,22.154 16.0505,22.7720027 16.814,22.7720027 C17.576,22.7735 18.197,22.1555 18.197,21.395 Z M38,20 C38,29.9405 29.9405,38 20,38 C10.0595,38 2,29.9405 2,20 C2,10.0595 10.0595,2 20,2 C29.9405,2 38,10.0595 38,20 Z M30.5,19.8065 C30.5,18.53 29.4575,17.492 28.175,17.492 C27.5495,17.492 26.9825,17.7425 26.564,18.1445 C24.98,17.102 22.8365,16.439 20.465,16.3535 L21.7625,12.2675 L25.277,13.091 L25.2725,13.142 C25.2725,14.186 26.126,15.035 27.1745,15.035 C28.223,15.035 29.075,14.186 29.075,13.142 C29.075,12.098 28.223,11.249 27.1745,11.249 C26.369,11.249 25.6835,11.7515 25.406,12.455 L21.6185,11.567 C21.4535,11.5265 21.284,11.6225 21.233,11.7845 L19.7855,16.3415 C17.3015,16.3715 15.053,17.0405 13.3985,18.113 C12.983,17.7305 12.4325,17.4905 11.8235,17.4905 C10.5425,17.492 9.5,18.53 9.5,19.8065 C9.5,20.6555 9.9665,21.3905 10.652,21.794 C10.607,22.04 10.577,22.2905 10.577,22.544 C10.577,25.9655 14.7845,28.7495 19.9565,28.7495 C25.1285,28.7495 29.336,25.9655 29.336,22.544 C29.336,22.304 29.3105,22.0685 29.27,21.836 C29.999,21.4445 30.5,20.687 30.5,19.8065 L30.5,19.8065 Z M23.192,20.018 C22.4285,20.018 21.809,20.636 21.809,21.3965 C21.809,22.1555 22.43,22.7735 23.192,22.7735 C23.954,22.7735 24.575,22.1555 24.575,21.3965 C24.575,20.636 23.9555,20.018 23.192,20.018 Z" id="Shape" fill="#000000" fill-rule="nonzero"></path>
    </g>
</svg>