<?xml version="1.0" encoding="UTF-8"?>
<svg width="1024px" height="1024px" viewBox="0 0 1024 1024" version="1.1" xmlns="http://www.w3.org/2000/svg" xmlns:xlink="http://www.w3.org/1999/xlink">
    <title>Intro1</title>
    <g id="Intro1" stroke="none" stroke-width="1" fill="none" fill-rule="evenodd">
        <rect id="Rectangle" fill="#0B7DC3" x="0" y="0" width="1024" height="1024" rx="20"></rect>
        <rect id="Rectangle" stroke="#00AEEF" stroke-width="12" fill-opacity="0.3" fill="#00AEEF" x="151" y="514" width="299" height="180" rx="43"></rect>
        <path d="M226.142578,296.226562 L248.920898,216.539062 L249.287109,216.539062 L271.992188,296.226562 L287.739258,296.226562 L316.303711,190.538086 L299.238281,190.538086 L279.536133,273.375 L279.169922,273.375 L256.831055,190.538086 L241.303711,190.538086 L218.964844,273.375 L218.671875,273.375 L198.969727,190.538086 L181.904297,190.538086 L210.395508,296.226562 L226.142578,296.226562 Z M343.769531,296.226562 L343.769531,251.62207 C343.769531,239.610352 351.020508,231.260742 361.933594,231.260742 C373.066406,231.260742 379.511719,238.87793 379.511719,251.62207 L379.511719,296.226562 L395.332031,296.226562 L395.332031,248.619141 C395.332031,230.015625 384.492188,217.710938 368.012695,217.710938 C356.513672,217.710938 348.237305,222.911133 344.135742,231.84668 L343.769531,231.84668 L343.769531,190.538086 L327.949219,190.538086 L327.949219,296.226562 L343.769531,296.226562 Z M433.271484,297.618164 C443.452148,297.618164 452.387695,292.344727 456.855469,284.068359 L457.148438,284.068359 L457.148438,296.226562 L473.041992,296.226562 L473.041992,243.125977 C473.041992,227.671875 461.103516,217.710938 442.280273,217.710938 C423.310547,217.710938 411.811523,227.891602 410.712891,241.148438 L410.639648,241.954102 L425.581055,241.954102 L425.727539,241.294922 C427.045898,235.142578 432.685547,230.821289 441.84082,230.821289 C451.655273,230.821289 457.148438,235.948242 457.148438,244.444336 L457.148438,250.230469 L436.201172,251.475586 C417.963867,252.574219 407.563477,260.777344 407.563477,274.180664 L407.563477,274.327148 C407.563477,288.169922 417.890625,297.618164 433.271484,297.618164 Z M437.592773,284.947266 C429.09668,284.947266 423.530273,280.699219 423.530273,273.960938 L423.530273,273.814453 C423.530273,267.295898 428.803711,263.121094 438.325195,262.535156 L457.148438,261.363281 L457.148438,267.369141 C457.148438,277.40332 448.725586,284.947266 437.592773,284.947266 Z M515.375977,297.764648 C518.598633,297.764648 521.601562,297.398438 523.432617,297.105469 L523.432617,284.874023 C522.260742,285.020508 520.869141,285.166992 519.18457,285.166992 C512.519531,285.166992 509.003906,282.823242 509.003906,274.986328 L509.003906,231.773438 L523.432617,231.773438 L523.432617,219.175781 L509.003906,219.175781 L509.003906,199.107422 L492.817383,199.107422 L492.817383,219.175781 L481.757812,219.175781 L481.757812,231.773438 L492.817383,231.773438 L492.817383,275.938477 C492.817383,291.319336 500.141602,297.764648 515.375977,297.764648 Z M575.43457,207.310547 C580.634766,207.310547 584.663086,203.208984 584.663086,198.228516 C584.663086,193.174805 580.634766,189.073242 575.43457,189.073242 C570.307617,189.073242 566.206055,193.174805 566.206055,198.228516 C566.206055,203.208984 570.307617,207.310547 575.43457,207.310547 Z M583.344727,296.226562 L583.344727,219.175781 L567.524414,219.175781 L567.524414,296.226562 L583.344727,296.226562 Z M620.185547,296.226562 L620.185547,231.773438 L635.566406,231.773438 L635.566406,219.175781 L619.892578,219.175781 L619.892578,211.265625 C619.892578,204.454102 623.261719,201.011719 630.366211,201.011719 C632.34375,201.011719 634.321289,201.158203 635.859375,201.37793 L635.859375,189.65918 C633.735352,189.292969 630.219727,189 626.99707,189 C611.323242,189 604.291992,196.03125 604.291992,210.972656 L604.291992,219.175781 L593.671875,219.175781 L593.671875,231.773438 L604.291992,231.773438 L604.291992,296.226562 L620.185547,296.226562 Z M195.600586,500.93457 C210.688477,500.93457 218.745117,494.782227 224.458008,478.81543 L253.168945,398.175781 L236.469727,398.175781 L217.060547,460.871094 L216.547852,460.871094 L197.138672,398.175781 L180,398.175781 L208.051758,475.299805 L206.733398,478.961914 C204.09668,486.432617 199.995117,488.410156 192.524414,488.410156 C190.400391,488.410156 188.569336,488.117188 187.324219,487.824219 L187.324219,500.202148 C189.228516,500.568359 192.524414,500.93457 195.600586,500.93457 Z M295.429688,476.764648 C317.475586,476.764648 331.977539,461.530273 331.977539,436.701172 L331.977539,436.554688 C331.977539,411.87207 317.329102,396.710938 295.356445,396.710938 C273.457031,396.710938 258.881836,411.945312 258.881836,436.554688 L258.881836,436.701172 C258.881836,461.457031 273.310547,476.764648 295.429688,476.764648 Z M295.50293,463.507812 C283.125,463.507812 275.068359,453.766602 275.068359,436.701172 L275.068359,436.554688 C275.068359,419.708984 283.198242,409.967773 295.356445,409.967773 C307.734375,409.967773 315.791016,419.708984 315.791016,436.554688 L315.791016,436.701172 C315.791016,453.693359 307.880859,463.507812 295.50293,463.507812 Z M370.429688,476.764648 C382.148438,476.764648 389.985352,471.417969 394.013672,463.654297 L394.379883,463.654297 L394.379883,475.226562 L410.273438,475.226562 L410.273438,398.175781 L394.379883,398.175781 L394.379883,443.146484 C394.379883,455.158203 387.202148,463.141602 376.069336,463.141602 C365.083008,463.141602 359.663086,456.696289 359.663086,445.050781 L359.663086,398.175781 L343.842773,398.175781 L343.842773,448.126953 C343.842773,465.851562 353.510742,476.764648 370.429688,476.764648 Z M489.375,476.764648 C507.905273,476.764648 520.795898,464.899414 522.480469,449.445312 L522.553711,448.932617 L507.319336,448.932617 L507.246094,449.518555 C505.341797,457.868164 499.116211,463.507812 489.375,463.507812 C477.143555,463.507812 469.013672,453.620117 469.013672,436.774414 L469.013672,436.701172 C469.013672,420.22168 476.99707,409.967773 489.301758,409.967773 C499.628906,409.967773 505.488281,416.339844 507.172852,423.883789 L507.319336,424.469727 L522.407227,424.469727 L522.333984,423.957031 C521.015625,409.455078 509.003906,396.710938 489.155273,396.710938 C467.182617,396.710938 452.827148,412.165039 452.827148,436.554688 L452.827148,436.62793 C452.827148,461.310547 466.889648,476.764648 489.375,476.764648 Z M566.865234,476.764648 C588.911133,476.764648 603.413086,461.530273 603.413086,436.701172 L603.413086,436.554688 C603.413086,411.87207 588.764648,396.710938 566.791992,396.710938 C544.892578,396.710938 530.317383,411.945312 530.317383,436.554688 L530.317383,436.701172 C530.317383,461.457031 544.746094,476.764648 566.865234,476.764648 Z M566.938477,463.507812 C554.560547,463.507812 546.503906,453.766602 546.503906,436.701172 L546.503906,436.554688 C546.503906,419.708984 554.633789,409.967773 566.791992,409.967773 C579.169922,409.967773 587.226562,419.708984 587.226562,436.554688 L587.226562,436.701172 C587.226562,453.693359 579.316406,463.507812 566.938477,463.507812 Z M641.865234,476.764648 C653.583984,476.764648 661.420898,471.417969 665.449219,463.654297 L665.81543,463.654297 L665.81543,475.226562 L681.708984,475.226562 L681.708984,398.175781 L665.81543,398.175781 L665.81543,443.146484 C665.81543,455.158203 658.637695,463.141602 647.504883,463.141602 C636.518555,463.141602 631.098633,456.696289 631.098633,445.050781 L631.098633,398.175781 L615.27832,398.175781 L615.27832,448.126953 C615.27832,465.851562 624.946289,476.764648 641.865234,476.764648 Z M713.71582,475.226562 L713.71582,369.538086 L697.895508,369.538086 L697.895508,475.226562 L713.71582,475.226562 Z M758.759766,476.764648 C769.819336,476.764648 778.31543,471.198242 782.929688,462.189453 L783.222656,462.189453 L783.222656,475.226562 L799.116211,475.226562 L799.116211,369.538086 L783.222656,369.538086 L783.222656,411.286133 L782.929688,411.286133 C778.31543,402.204102 769.526367,396.710938 758.613281,396.710938 C739.277344,396.710938 726.533203,412.091797 726.533203,436.62793 L726.533203,436.701172 C726.533203,461.237305 739.130859,476.764648 758.759766,476.764648 Z M762.93457,463.141602 C750.410156,463.141602 742.719727,453.107422 742.719727,436.701172 L742.719727,436.62793 C742.719727,420.368164 750.483398,410.260742 762.93457,410.260742 C774.799805,410.260742 783.295898,420.661133 783.295898,436.62793 L783.295898,436.701172 C783.295898,452.741211 774.873047,463.141602 762.93457,463.141602 Z M207.026367,654.226562 L207.026367,589.773438 L222.407227,589.773438 L222.407227,577.175781 L206.733398,577.175781 L206.733398,569.265625 C206.733398,562.454102 210.102539,559.011719 217.207031,559.011719 C219.18457,559.011719 221.162109,559.158203 222.700195,559.37793 L222.700195,547.65918 C220.576172,547.292969 217.060547,547 213.837891,547 C198.164062,547 191.132812,554.03125 191.132812,568.972656 L191.132812,577.175781 L180.512695,577.175781 L180.512695,589.773438 L191.132812,589.773438 L191.132812,654.226562 L207.026367,654.226562 Z M243.427734,565.310547 C248.62793,565.310547 252.65625,561.208984 252.65625,556.228516 C252.65625,551.174805 248.62793,547.073242 243.427734,547.073242 C238.300781,547.073242 234.199219,551.174805 234.199219,556.228516 C234.199219,561.208984 238.300781,565.310547 243.427734,565.310547 Z M251.337891,654.226562 L251.337891,577.175781 L235.517578,577.175781 L235.517578,654.226562 L251.337891,654.226562 Z M283.491211,654.226562 L283.491211,609.329102 C283.491211,597.317383 290.668945,589.260742 301.801758,589.260742 C312.788086,589.260742 318.208008,595.779297 318.208008,607.351562 L318.208008,654.226562 L334.101562,654.226562 L334.101562,604.348633 C334.101562,586.624023 324.360352,575.710938 307.441406,575.710938 C295.795898,575.710938 287.885742,580.984375 283.857422,588.821289 L283.491211,588.821289 L283.491211,577.175781 L267.670898,577.175781 L267.670898,654.226562 L283.491211,654.226562 Z M378.120117,655.764648 C389.179688,655.764648 397.675781,650.198242 402.290039,641.189453 L402.583008,641.189453 L402.583008,654.226562 L418.476562,654.226562 L418.476562,548.538086 L402.583008,548.538086 L402.583008,590.286133 L402.290039,590.286133 C397.675781,581.204102 388.886719,575.710938 377.973633,575.710938 C358.637695,575.710938 345.893555,591.091797 345.893555,615.62793 L345.893555,615.701172 C345.893555,640.237305 358.491211,655.764648 378.120117,655.764648 Z M382.294922,642.141602 C369.770508,642.141602 362.080078,632.107422 362.080078,615.701172 L362.080078,615.62793 C362.080078,599.368164 369.84375,589.260742 382.294922,589.260742 C394.160156,589.260742 402.65625,599.661133 402.65625,615.62793 L402.65625,615.701172 C402.65625,631.741211 394.233398,642.141602 382.294922,642.141602 Z M492.084961,655.764648 C495.307617,655.764648 498.310547,655.398438 500.141602,655.105469 L500.141602,642.874023 C498.969727,643.020508 497.578125,643.166992 495.893555,643.166992 C489.228516,643.166992 485.712891,640.823242 485.712891,632.986328 L485.712891,589.773438 L500.141602,589.773438 L500.141602,577.175781 L485.712891,577.175781 L485.712891,557.107422 L469.526367,557.107422 L469.526367,577.175781 L458.466797,577.175781 L458.466797,589.773438 L469.526367,589.773438 L469.526367,633.938477 C469.526367,649.319336 476.850586,655.764648 492.084961,655.764648 Z M546.064453,655.764648 C564.741211,655.764648 576.606445,644.631836 579.09668,632.400391 L579.243164,631.594727 L564.228516,631.594727 L564.008789,632.180664 C562.03125,637.966797 555.805664,642.800781 546.430664,642.800781 C533.833008,642.800781 525.849609,634.304688 525.556641,619.729492 L580.12207,619.729492 L580.12207,614.382812 C580.12207,591.238281 566.865234,575.710938 545.258789,575.710938 C523.652344,575.710938 509.736328,591.824219 509.736328,615.920898 L509.736328,615.994141 C509.736328,640.310547 523.432617,655.764648 546.064453,655.764648 Z M564.448242,608.523438 L525.776367,608.523438 C527.167969,595.632812 535.078125,588.674805 545.332031,588.674805 C555.65918,588.674805 563.129883,595.193359 564.448242,608.523438 Z M603.706055,654.226562 L620.771484,625.881836 L621.137695,625.881836 L638.203125,654.226562 L655.634766,654.226562 L630.585938,615.261719 L655.927734,577.175781 L638.422852,577.175781 L621.870117,605.081055 L621.503906,605.081055 L604.731445,577.175781 L586.933594,577.175781 L612.055664,615.774414 L586.567383,654.226562 L603.706055,654.226562 Z M692.841797,655.764648 C696.064453,655.764648 699.067383,655.398438 700.898438,655.105469 L700.898438,642.874023 C699.726562,643.020508 698.334961,643.166992 696.650391,643.166992 C689.985352,643.166992 686.469727,640.823242 686.469727,632.986328 L686.469727,589.773438 L700.898438,589.773438 L700.898438,577.175781 L686.469727,577.175781 L686.469727,557.107422 L670.283203,557.107422 L670.283203,577.175781 L659.223633,577.175781 L659.223633,589.773438 L670.283203,589.773438 L670.283203,633.938477 C670.283203,649.319336 677.607422,655.764648 692.841797,655.764648 Z M752.900391,565.310547 C758.100586,565.310547 762.128906,561.208984 762.128906,556.228516 C762.128906,551.174805 758.100586,547.073242 752.900391,547.073242 C747.773438,547.073242 743.671875,551.174805 743.671875,556.228516 C743.671875,561.208984 747.773438,565.310547 752.900391,565.310547 Z M760.810547,654.226562 L760.810547,577.175781 L744.990234,577.175781 L744.990234,654.226562 L760.810547,654.226562 Z M792.963867,654.226562 L792.963867,609.329102 C792.963867,597.317383 800.141602,589.260742 811.274414,589.260742 C822.260742,589.260742 827.680664,595.779297 827.680664,607.351562 L827.680664,654.226562 L843.574219,654.226562 L843.574219,604.348633 C843.574219,586.624023 833.833008,575.710938 816.914062,575.710938 C805.268555,575.710938 797.358398,580.984375 793.330078,588.821289 L792.963867,588.821289 L792.963867,577.175781 L777.143555,577.175781 L777.143555,654.226562 L792.963867,654.226562 Z M202.338867,833.226562 L202.338867,787.303711 C202.338867,775.804688 208.637695,769.139648 218.818359,769.139648 C221.894531,769.139648 224.677734,769.505859 225.922852,770.018555 L225.922852,755.296875 C224.677734,755.077148 222.700195,754.710938 220.429688,754.710938 C211.640625,754.710938 205.195312,760.350586 202.705078,769.359375 L202.338867,769.359375 L202.338867,756.175781 L186.518555,756.175781 L186.518555,833.226562 L202.338867,833.226562 Z M268.623047,834.764648 C287.299805,834.764648 299.165039,823.631836 301.655273,811.400391 L301.801758,810.594727 L286.787109,810.594727 L286.567383,811.180664 C284.589844,816.966797 278.364258,821.800781 268.989258,821.800781 C256.391602,821.800781 248.408203,813.304688 248.115234,798.729492 L302.680664,798.729492 L302.680664,793.382812 C302.680664,770.238281 289.423828,754.710938 267.817383,754.710938 C246.210938,754.710938 232.294922,770.824219 232.294922,794.920898 L232.294922,794.994141 C232.294922,819.310547 245.991211,834.764648 268.623047,834.764648 Z M287.006836,787.523438 L248.334961,787.523438 C249.726562,774.632812 257.636719,767.674805 267.890625,767.674805 C278.217773,767.674805 285.688477,774.193359 287.006836,787.523438 Z M337.543945,834.618164 C347.724609,834.618164 356.660156,829.344727 361.12793,821.068359 L361.420898,821.068359 L361.420898,833.226562 L377.314453,833.226562 L377.314453,780.125977 C377.314453,764.671875 365.375977,754.710938 346.552734,754.710938 C327.583008,754.710938 316.083984,764.891602 314.985352,778.148438 L314.912109,778.954102 L329.853516,778.954102 L330,778.294922 C331.318359,772.142578 336.958008,767.821289 346.113281,767.821289 C355.927734,767.821289 361.420898,772.948242 361.420898,781.444336 L361.420898,787.230469 L340.473633,788.475586 C322.236328,789.574219 311.835938,797.777344 311.835938,811.180664 L311.835938,811.327148 C311.835938,825.169922 322.163086,834.618164 337.543945,834.618164 Z M341.865234,821.947266 C333.369141,821.947266 327.802734,817.699219 327.802734,810.960938 L327.802734,810.814453 C327.802734,804.295898 333.076172,800.121094 342.597656,799.535156 L361.420898,798.363281 L361.420898,804.369141 C361.420898,814.40332 352.998047,821.947266 341.865234,821.947266 Z M409.02832,833.226562 L409.02832,727.538086 L393.208008,727.538086 L393.208008,833.226562 L409.02832,833.226562 Z M472.089844,833.226562 L472.089844,727.538086 L456.269531,727.538086 L456.269531,833.226562 L472.089844,833.226562 Z M496.918945,744.310547 C502.119141,744.310547 506.147461,740.208984 506.147461,735.228516 C506.147461,730.174805 502.119141,726.073242 496.918945,726.073242 C491.791992,726.073242 487.69043,730.174805 487.69043,735.228516 C487.69043,740.208984 491.791992,744.310547 496.918945,744.310547 Z M504.829102,833.226562 L504.829102,756.175781 L489.008789,756.175781 L489.008789,833.226562 L504.829102,833.226562 Z M541.669922,833.226562 L541.669922,768.773438 L557.050781,768.773438 L557.050781,756.175781 L541.376953,756.175781 L541.376953,748.265625 C541.376953,741.454102 544.746094,738.011719 551.850586,738.011719 C553.828125,738.011719 555.805664,738.158203 557.34375,738.37793 L557.34375,726.65918 C555.219727,726.292969 551.704102,726 548.481445,726 C532.807617,726 525.776367,733.03125 525.776367,747.972656 L525.776367,756.175781 L515.15625,756.175781 L515.15625,768.773438 L525.776367,768.773438 L525.776367,833.226562 L541.669922,833.226562 Z M602.387695,834.764648 C621.064453,834.764648 632.929688,823.631836 635.419922,811.400391 L635.566406,810.594727 L620.551758,810.594727 L620.332031,811.180664 C618.354492,816.966797 612.128906,821.800781 602.753906,821.800781 C590.15625,821.800781 582.172852,813.304688 581.879883,798.729492 L636.445312,798.729492 L636.445312,793.382812 C636.445312,770.238281 623.188477,754.710938 601.582031,754.710938 C579.975586,754.710938 566.05957,770.824219 566.05957,794.920898 L566.05957,794.994141 C566.05957,819.310547 579.755859,834.764648 602.387695,834.764648 Z M620.771484,787.523438 L582.099609,787.523438 C583.491211,774.632812 591.401367,767.674805 601.655273,767.674805 C611.982422,767.674805 619.453125,774.193359 620.771484,787.523438 Z M682.954102,800.047852 L682.954102,795.873047 C682.954102,788.475586 685.664062,784.520508 695.112305,778.954102 C704.780273,773.167969 710.493164,765.18457 710.493164,753.905273 L710.493164,753.832031 C710.493164,738.084961 697.382812,726.65918 678.120117,726.65918 C656.879883,726.65918 645.893555,739.256836 644.941406,755.003906 L644.868164,755.882812 L660.029297,755.882812 L660.102539,755.223633 C660.908203,746.288086 667.207031,740.135742 677.314453,740.135742 C687.275391,740.135742 693.867188,746.141602 693.867188,754.491211 L693.867188,754.564453 C693.867188,762.035156 690.717773,766.283203 681.855469,771.629883 C671.821289,777.635742 667.5,784.227539 667.719727,794.188477 L667.792969,800.047852 L682.954102,800.047852 Z M675.483398,834.032227 C680.976562,834.032227 685.151367,829.857422 685.151367,824.510742 C685.151367,819.164062 680.976562,815.0625 675.483398,815.0625 C670.136719,815.0625 665.888672,819.164062 665.888672,824.510742 C665.888672,829.857422 670.136719,834.032227 675.483398,834.032227 Z" id="Whatifyoucouldfindtextinreallife?" fill="#FFFFFF" fill-rule="nonzero"></path>
    </g>
</svg>