<?xml version="1.0" encoding="UTF-8"?>
<svg width="128px" height="128px" viewBox="0 0 128 128" version="1.1" xmlns="http://www.w3.org/2000/svg" xmlns:xlink="http://www.w3.org/1999/xlink">
    <title>CacheRim</title>
    <g id="CacheRim" stroke="none" stroke-width="1" fill="none" fill-rule="evenodd">
        <path d="M67.7785504,24 C77.2183649,24 82.4745501,25.3434796 87.1917272,27.8662536 C88.0340802,28.3167489 88.8440637,28.8048493 89.6207428,29.3296198 L64.4297078,64.9244083 L57.9709502,57.3429947 C54.7850485,53.6036179 49.1821024,53.1272179 45.4106057,56.2750301 L45.4106057,56.2750301 L45.3425357,56.3324317 C41.6518073,59.4768856 41.2089644,65.0178957 44.3534183,68.7086241 L44.3534183,68.7086241 L55.9096063,82.2724263 C57.0683682,83.6324956 58.0596763,84.4236006 59.0946768,84.9308889 L59.0946768,84.9308889 L59.1824611,85.05186 L59.4380726,85.2241563 C60.9782203,86.2623014 62.3011332,86.7622851 63.6135351,86.906995 C64.9259369,87.051705 66.1956358,86.819442 67.3718205,86.219501 C68.5480052,85.6195599 69.6082501,84.6836309 70.681148,83.1674877 L70.681148,83.1674877 L99.6822804,42.1850908 C101.202392,46.1582446 102,50.9479609 102,58.2214496 L102,69.7785504 C102,79.2183649 100.65652,84.4745501 98.1337464,89.1917272 C95.6109725,93.9089043 91.9089043,97.6109725 87.1917272,100.133746 C82.4745501,102.65652 77.2183649,104 67.7785504,104 L60.2214496,104 C50.7816351,104 45.5254499,102.65652 40.8082728,100.133746 C36.0910957,97.6109725 32.3890275,93.9089043 29.8662536,89.1917272 C27.3434796,84.4745501 26,79.2183649 26,69.7785504 L26,58.2214496 C26,48.7816351 27.3434796,43.5254499 29.8662536,38.8082728 C32.3890275,34.0910957 36.0910957,30.3890275 40.8082728,27.8662536 C45.5254499,25.3434796 50.7816351,24 60.2214496,24 L67.7785504,24 Z" id="Combined-Shape" stroke="#000000" stroke-width="4.6875"></path>
    </g>
</svg>