<?xml version="1.0" encoding="UTF-8"?>
<svg width="30px" height="24px" viewBox="0 0 30 24" version="1.1" xmlns="http://www.w3.org/2000/svg" xmlns:xlink="http://www.w3.org/1999/xlink">
    <title>Combined Shape</title>
    <g id="Page-1" stroke="none" stroke-width="1" fill="none" fill-rule="evenodd">
        <g id="EmailIcon" transform="translate(-5.000000, -8.000000)" fill="#000000" fill-rule="nonzero">
            <path d="M30.6074766,8 C33.4065028,8 34.9100646,9.44121093 34.9960881,12.1987379 L35,12.453045 L35,27.546955 C35,30.3841441 33.5913398,31.9088018 31.1524488,31.9960332 L30.9279039,32 L9.39252336,32 C6.59349721,32 5.08993537,30.5587891 5.00391186,27.8012621 L5,27.546955 L5,12.453045 C5,9.60259801 6.40866022,8.09041836 8.8475512,8.0039324 L9.07209613,8 L30.6074766,8 Z M22.9154471,27.2968182 C22.8060128,27.1377273 22.6262277,27.1377273 22.5154906,27.2968182 C22.0204303,28.0108333 21.2009753,28.3593182 20.0089223,28.3593182 L20.0089223,28.3593182 L19.9985,28.3631061 L19.9880777,28.3593182 C18.7947219,28.3593182 17.9752669,28.0108333 17.4815094,27.2968182 C17.3707723,27.1377273 17.1909872,27.1377273 17.0815529,27.2968182 C16.9708157,27.4559091 16.9708157,27.7153788 17.0815529,27.8744697 C17.6873503,28.7513636 18.6383871,29.1775 19.9880777,29.1775 L19.9880777,29.1775 L19.9985,29.1737121 L20.0089223,29.1775 C21.3599157,29.1775 22.3096497,28.7513636 22.9154471,27.8763636 C23.0261843,27.7153788 23.0261843,27.4559091 22.9154471,27.2968182 Z M12.5,20 C11.1192881,20 10,21.1192881 10,22.5 C10,23.8807119 11.1192881,25 12.5,25 C13.8807119,25 15,23.8807119 15,22.5 C15,21.1192881 13.8807119,20 12.5,20 Z M27.5,20 C26.1192881,20 25,21.1192881 25,22.5 C25,23.8807119 26.1192881,25 27.5,25 C28.8807119,25 30,23.8807119 30,22.5 C30,21.1192881 28.8807119,20 27.5,20 Z M30.3594771,11 L9.61437908,11 C9.46623094,11 9.32389252,11.0113379 9.19123699,11.0302343 L9,11.0637755 L18.5163399,20.247449 C19.0653595,20.7576531 19.5228758,21 20.0065359,21 C20.4418301,21 20.8559477,20.8140306 21.3346536,20.3955995 L21.496732,20.247449 L31,11.0765306 C30.8039216,11.0255102 30.5947712,11 30.3594771,11 Z" id="Combined-Shape"></path>
        </g>
    </g>
</svg>