<?xml version="1.0" encoding="UTF-8"?>
<svg width="40px" height="40px" viewBox="0 0 40 40" version="1.1" xmlns="http://www.w3.org/2000/svg" xmlns:xlink="http://www.w3.org/1999/xlink">
    <title>GitHubIcon</title>
    <g id="GitHubIcon" stroke="none" stroke-width="1" fill="none" fill-rule="evenodd">
        <path d="M20.000149,2 C10.0602443,2 2,10.2627107 2,20.4557099 C2,28.6099259 7.15759056,35.5279137 14.3096005,37.96828 C15.2091906,38.1391209 15.5394577,37.5679194 15.5394577,37.0804573 C15.5394577,36.6403662 15.5227655,35.1865374 15.5150155,33.6443848 C10.5073567,34.7608104 9.45068102,31.4668507 9.45068102,31.4668507 C8.63186918,29.3336312 7.45208859,28.7664027 7.45208859,28.7664027 C5.81893604,27.6209433 7.57519354,27.644476 7.57519354,27.644476 C9.38271993,27.7746696 10.3344732,29.5463419 10.3344732,29.5463419 C11.9399048,32.367815 14.5453778,31.5521183 15.572544,31.0805485 C15.7341006,29.8877182 16.2005879,29.0735496 16.7153633,28.6126764 C12.7172842,28.1459965 8.51442765,26.5635022 8.51442765,19.4917881 C8.51442765,17.4768431 9.21758642,15.8304745 10.3690499,14.5380125 C10.1821569,14.0731662 9.56603602,12.1960554 10.5434237,9.65391796 C10.5434237,9.65391796 12.0549617,9.1578986 15.4947464,11.5456985 C16.9305734,11.1367805 18.4704285,10.9317103 20.000149,10.9246811 C21.5298696,10.9317103 23.070917,11.1367805 24.5094266,11.5456985 C27.9450383,9.1578986 29.4544898,9.65391796 29.4544898,9.65391796 C30.4342621,12.1960554 29.8178431,14.0731662 29.6309501,14.5380125 C30.7850963,15.8304745 31.4834858,17.4768431 31.4834858,19.4917881 C31.4834858,26.5803112 27.2725812,28.1411066 23.2643676,28.5980067 C23.9099979,29.1707364 24.4852826,30.2938856 24.4852826,32.0157421 C24.4852826,34.4851422 24.4644173,36.4725815 24.4644173,37.0804573 C24.4644173,37.5715868 24.7884248,38.147067 25.7008321,37.9658351 C32.8489671,35.5227182 38,28.6071753 38,20.4557099 C38,10.2627107 29.940948,2 20.000149,2" id="Fill-5" fill="#000000"></path>
    </g>
</svg>