<svg fill="none" height="100" viewBox="0 0 100 100" width="100" xmlns="http://www.w3.org/2000/svg"><path d="m84.6542 18.3c-6.3736-2.916-13.2084-5.0644-20.3546-6.2948-.1302-.0238-.2602.0356-.3272.1543-.879 1.5588-1.8527 3.5924-2.5345 5.1909-7.6862-1.1474-15.333-1.1474-22.8616 0-.6819-1.634-1.6909-3.6321-2.5739-5.1909-.067-.1148-.197-.1741-.3272-.1543-7.1422 1.2265-13.977 3.3749-20.3546 6.2948-.0552.0237-.1026.0633-.134.1147-12.96413 19.3118-16.51556 38.1489-14.773349 56.7524.007883.091.059123.1781.130074.2334 8.553375 6.2631 16.838775 10.0654 24.970375 12.5856.1301.0397.268-.0078.3508-.1147 1.9235-2.6191 3.6382-5.3808 5.1083-8.2849.0868-.1701.004-.3719-.1734-.4392-2.7197-1.0287-5.3094-2.2829-7.8005-3.7072-.1971-.1147-.2128-.3957-.0316-.5303.5243-.3916 1.0486-.7992 1.5492-1.2107.0905-.0751.2167-.091.3232-.0435 16.3657 7.4502 34.0834 7.4502 50.2559 0 .1065-.0514.2327-.0355.3272.0396.5007.4115 1.0249.823 1.5531 1.2146.1813.1346.1695.4156-.0276.5303-2.4911 1.452-5.0808 2.6785-7.8045 3.7033-.1773.0673-.2562.273-.1694.4431 1.5017 2.9001 3.2163 5.6617 5.1043 8.281.0789.1108.2207.1583.3509.1186 8.171-2.5202 16.4563-6.3225 25.0097-12.5856.0749-.0553.1222-.1385.1301-.2295 2.0856-21.5077-3.4924-40.1903-14.7852-56.7523-.0276-.0554-.0748-.095-.13-.1187zm-51.2374 45.5395c-4.9272 0-8.9871-4.5104-8.9871-10.0495 0-5.5392 3.9811-10.0495 8.9871-10.0495 5.0452 0 9.0657 4.5499 8.9869 10.0495 0 5.5391-3.9812 10.0495-8.9869 10.0495zm33.228 0c-4.9271 0-8.9869-4.5104-8.9869-10.0495 0-5.5392 3.981-10.0495 8.9869-10.0495 5.0453 0 9.0658 4.5499 8.987 10.0495 0 5.5391-3.9417 10.0495-8.987 10.0495z" fill="#fff"/></svg>