<?xml version="1.0" encoding="UTF-8"?>
<svg width="120px" height="120px" viewBox="0 0 120 120" version="1.1" xmlns="http://www.w3.org/2000/svg" xmlns:xlink="http://www.w3.org/1999/xlink">
    <title>Check Copy</title>
    <g id="Check-Copy" stroke="none" stroke-width="1" fill="none" fill-rule="evenodd">
        <path d="M60,116 C60.5136612,116 61.1162253,115.89193 61.8076923,115.675789 C62.4991593,115.459649 63.2202606,115.174737 63.9709962,114.821053 C72.0315259,110.773333 78.8177806,107.059649 84.3297604,103.68 C89.8417402,100.300351 94.2473728,96.9501754 97.5466583,93.6294737 C100.845944,90.3087719 103.246322,86.7424561 104.747793,82.9305263 C106.249264,79.1185965 107,74.6975439 107,69.6673684 L107,28.5221053 C107,25.0638596 106.318411,22.4996491 104.955233,20.8294737 C103.592055,19.1592982 101.408995,17.6954386 98.406053,16.4378947 C96.9440942,15.8484211 94.7412778,15.0133333 91.797604,13.9326316 C88.8539302,12.8519298 85.7028163,11.7122807 82.3442623,10.5136842 C78.9857083,9.31508772 75.8543506,8.21473684 72.9501892,7.21263158 C70.0460277,6.21052632 67.8827238,5.47368421 66.4602774,5.00210526 C65.432955,4.6877193 64.3562421,4.44210526 63.2301387,4.26526316 C62.1040353,4.08842105 61.0273224,4 60,4 C58.9331652,4 57.8366961,4.09824561 56.7105927,4.29473684 C55.5844893,4.49122807 54.5275326,4.72701754 53.5397226,5.00210526 C52.0777638,5.47368421 49.9045818,6.21052632 47.0201765,7.21263158 C44.1357713,8.21473684 41.0044136,9.31508772 37.6261034,10.5136842 C34.2477932,11.7122807 31.0868012,12.8519298 28.1431274,13.9326316 C25.1994536,15.0133333 22.9966372,15.8484211 21.5346784,16.4378947 C18.531736,17.6561404 16.358554,19.1101754 15.0151324,20.8 C13.6717108,22.4898246 13,25.0638596 13,28.5221053 L13,69.6673684 C13,74.6975439 13.7507356,79.0891228 15.2522068,82.8421053 C16.753678,86.5950877 19.1836906,90.1024561 22.5422446,93.3642105 C25.9007987,96.6259649 30.3261875,99.9466667 35.8184111,103.326316 C41.3106347,106.705965 48.0474989,110.537544 56.0290038,114.821053 C56.740227,115.214035 57.4415721,115.508772 58.1330391,115.705263 C58.8245061,115.901754 59.4468264,116 60,116 Z M60.5327236,66 C56.8610286,66 54.9653165,64.1904762 54.8455874,60.5714286 L54.0074831,34.1290323 C53.9276636,32.3389657 54.4863998,30.8699437 55.6836916,29.7219662 C56.8809835,28.5739887 58.4773726,28 60.472859,28 C62.4284357,28 64.0148474,28.5739887 65.2320941,29.7219662 C66.4493408,30.8699437 67.0380093,32.3584229 66.9980995,34.187404 L66.1001307,60.5714286 C65.9804015,64.1904762 64.1245991,66 60.5327236,66 Z M60.0288066,86 C58.0699588,86 56.4087791,85.390625 55.0452675,84.171875 C53.6817558,82.953125 53,81.3958333 53,79.5 C53,77.6428571 53.6817558,76.0952381 55.0452675,74.8571429 C56.4087791,73.6190476 58.0699588,73 60.0288066,73 C61.9876543,73 63.6392318,73.609375 64.9835391,74.828125 C66.3278464,76.046875 67,77.6041667 67,79.5 C67,81.4345238 66.3182442,83.0014881 64.9547325,84.2008929 C63.5912209,85.4002976 61.9492455,86 60.0288066,86 Z" id="􀞠" fill="#FFFFFF" fill-rule="nonzero"></path>
    </g>
</svg>