<?xml version="1.0" encoding="UTF-8"?>
<svg width="400px" height="400px" viewBox="0 0 400 400" version="1.1" xmlns="http://www.w3.org/2000/svg" xmlns:xlink="http://www.w3.org/1999/xlink">
    <title>StarredPhotos</title>
    <g id="StarredPhotos" stroke="none" stroke-width="1" fill="none" fill-rule="evenodd">
        <rect id="Rectangle-Copy-6" stroke="#FFD800" stroke-width="5" fill-opacity="0.5" fill="#FFD800" x="210" y="3" width="162" height="162" rx="24"></rect>
        <rect id="Rectangle-Copy-9" stroke="#FCE400" stroke-width="5" fill-opacity="0.5" fill="#FFE700" x="28" y="53" width="162" height="162" rx="24"></rect>
        <rect id="Rectangle-Copy-7" stroke="#FFCC55" stroke-width="5" fill-opacity="0.5" fill="#FFCC55" x="28" y="235" width="162" height="162" rx="24"></rect>
        <rect id="Rectangle-Copy-8" stroke="#FFB400" stroke-width="5" fill-opacity="0.5" fill="#FFB400" x="210" y="185" width="162" height="162" rx="24"></rect>
        <path d="M86.6083231,118.313154 C87.1453603,117.925294 87.4698203,117.406904 87.581703,116.757984 C87.6935858,116.109064 87.6003501,115.351991 87.3019961,114.486764 L82.9833218,101.665 L93.9925848,93.7884546 C94.7384698,93.2514174 95.2605893,92.6882742 95.5589433,92.099025 C95.8572973,91.5097758 95.9020504,90.8944207 95.6932026,90.2529596 C95.4843548,89.6264162 95.0853063,89.160238 94.4960572,88.8544252 C93.906808,88.5486123 93.1571935,88.4031647 92.2472138,88.4180824 L78.7541538,88.5075886 L74.659245,75.6186954 C74.3758087,74.7385511 73.9991368,74.0672546 73.5292292,73.6048059 C73.0593216,73.1423572 72.4887196,72.9111328 71.8174231,72.9111328 C71.1610442,72.9111328 70.6016305,73.1423572 70.1391818,73.6048059 C69.6767331,74.0672546 69.2963317,74.7385511 68.9979777,75.6186954 L64.9030689,88.5075886 L51.4100089,88.4180824 C50.5000291,88.4031647 49.7504147,88.5486123 49.1611655,88.8544252 C48.5719164,89.160238 48.1728679,89.6264162 47.9640201,90.2529596 C47.7402546,90.879503 47.7812782,91.4911287 48.0870911,92.0878367 C48.3929039,92.6845447 48.9187529,93.2514174 49.6646379,93.7884546 L60.6739008,101.665 L56.3552266,114.486764 C56.0568726,115.351991 55.9673663,116.109064 56.086708,116.757984 C56.2060496,117.406904 56.5267801,117.925294 57.0488996,118.313154 C57.5710191,118.73085 58.1602683,118.883756 58.8166471,118.771873 C59.473026,118.659991 60.1741579,118.328072 60.9200429,117.776117 L71.8174231,109.765312 L82.7371798,117.776117 C83.4830648,118.328072 84.1841967,118.659991 84.8405755,118.771873 C85.4969544,118.883756 86.0862035,118.73085 86.6083231,118.313154 Z" id="􀋃" fill="#FCE400" fill-rule="nonzero"></path>
        <path d="M268.608323,68.3131541 C269.14536,67.9252939 269.46982,67.4069038 269.581703,66.7579838 C269.693586,66.1090639 269.60035,65.3519906 269.301996,64.4867639 L264.983322,51.6650004 L275.992585,43.7884546 C276.73847,43.2514174 277.260589,42.6882742 277.558943,42.099025 C277.857297,41.5097758 277.90205,40.8944207 277.693203,40.2529596 C277.484355,39.6264162 277.085306,39.160238 276.496057,38.8544252 C275.906808,38.5486123 275.157194,38.4031647 274.247214,38.4180824 L260.754154,38.5075886 L256.659245,25.6186954 C256.375809,24.7385511 255.999137,24.0672546 255.529229,23.6048059 C255.059322,23.1423572 254.48872,22.9111328 253.817423,22.9111328 C253.161044,22.9111328 252.60163,23.1423572 252.139182,23.6048059 C251.676733,24.0672546 251.296332,24.7385511 250.997978,25.6186954 L246.903069,38.5075886 L233.410009,38.4180824 C232.500029,38.4031647 231.750415,38.5486123 231.161166,38.8544252 C230.571916,39.160238 230.172868,39.6264162 229.96402,40.2529596 C229.740255,40.879503 229.781278,41.4911287 230.087091,42.0878367 C230.392904,42.6845447 230.918753,43.2514174 231.664638,43.7884546 L242.673901,51.6650004 L238.355227,64.4867639 C238.056873,65.3519906 237.967366,66.1090639 238.086708,66.7579838 C238.20605,67.4069038 238.52678,67.9252939 239.0489,68.3131541 C239.571019,68.7308497 240.160268,68.8837561 240.816647,68.7718734 C241.473026,68.6599906 242.174158,68.3280718 242.920043,67.7761169 L253.817423,59.7653117 L264.73718,67.7761169 C265.483065,68.3280718 266.184197,68.6599906 266.840576,68.7718734 C267.496954,68.8837561 268.086204,68.7308497 268.608323,68.3131541 Z" id="􀋃-copy" fill="#FFD800" fill-rule="nonzero"></path>
        <path d="M268.608323,250.313154 C269.14536,249.925294 269.46982,249.406904 269.581703,248.757984 C269.693586,248.109064 269.60035,247.351991 269.301996,246.486764 L264.983322,233.665 L275.992585,225.788455 C276.73847,225.251417 277.260589,224.688274 277.558943,224.099025 C277.857297,223.509776 277.90205,222.894421 277.693203,222.25296 C277.484355,221.626416 277.085306,221.160238 276.496057,220.854425 C275.906808,220.548612 275.157194,220.403165 274.247214,220.418082 L260.754154,220.507589 L256.659245,207.618695 C256.375809,206.738551 255.999137,206.067255 255.529229,205.604806 C255.059322,205.142357 254.48872,204.911133 253.817423,204.911133 C253.161044,204.911133 252.60163,205.142357 252.139182,205.604806 C251.676733,206.067255 251.296332,206.738551 250.997978,207.618695 L246.903069,220.507589 L233.410009,220.418082 C232.500029,220.403165 231.750415,220.548612 231.161166,220.854425 C230.571916,221.160238 230.172868,221.626416 229.96402,222.25296 C229.740255,222.879503 229.781278,223.491129 230.087091,224.087837 C230.392904,224.684545 230.918753,225.251417 231.664638,225.788455 L242.673901,233.665 L238.355227,246.486764 C238.056873,247.351991 237.967366,248.109064 238.086708,248.757984 C238.20605,249.406904 238.52678,249.925294 239.0489,250.313154 C239.571019,250.73085 240.160268,250.883756 240.816647,250.771873 C241.473026,250.659991 242.174158,250.328072 242.920043,249.776117 L253.817423,241.765312 L264.73718,249.776117 C265.483065,250.328072 266.184197,250.659991 266.840576,250.771873 C267.496954,250.883756 268.086204,250.73085 268.608323,250.313154 Z" id="􀋃-copy-2" fill="#FFB400" fill-rule="nonzero"></path>
        <path d="M86.6083231,300.313154 C87.1453603,299.925294 87.4698203,299.406904 87.581703,298.757984 C87.6935858,298.109064 87.6003501,297.351991 87.3019961,296.486764 L82.9833218,283.665 L93.9925848,275.788455 C94.7384698,275.251417 95.2605893,274.688274 95.5589433,274.099025 C95.8572973,273.509776 95.9020504,272.894421 95.6932026,272.25296 C95.4843548,271.626416 95.0853063,271.160238 94.4960572,270.854425 C93.906808,270.548612 93.1571935,270.403165 92.2472138,270.418082 L78.7541538,270.507589 L74.659245,257.618695 C74.3758087,256.738551 73.9991368,256.067255 73.5292292,255.604806 C73.0593216,255.142357 72.4887196,254.911133 71.8174231,254.911133 C71.1610442,254.911133 70.6016305,255.142357 70.1391818,255.604806 C69.6767331,256.067255 69.2963317,256.738551 68.9979777,257.618695 L64.9030689,270.507589 L51.4100089,270.418082 C50.5000291,270.403165 49.7504147,270.548612 49.1611655,270.854425 C48.5719164,271.160238 48.1728679,271.626416 47.9640201,272.25296 C47.7402546,272.879503 47.7812782,273.491129 48.0870911,274.087837 C48.3929039,274.684545 48.9187529,275.251417 49.6646379,275.788455 L60.6739008,283.665 L56.3552266,296.486764 C56.0568726,297.351991 55.9673663,298.109064 56.086708,298.757984 C56.2060496,299.406904 56.5267801,299.925294 57.0488996,300.313154 C57.5710191,300.73085 58.1602683,300.883756 58.8166471,300.771873 C59.473026,300.659991 60.1741579,300.328072 60.9200429,299.776117 L71.8174231,291.765312 L82.7371798,299.776117 C83.4830648,300.328072 84.1841967,300.659991 84.8405755,300.771873 C85.4969544,300.883756 86.0862035,300.73085 86.6083231,300.313154 Z" id="􀋃-copy-3" fill="#FFCC55" fill-rule="nonzero"></path>
    </g>
</svg>