<?xml version="1.0" encoding="UTF-8"?>
<svg width="30px" height="30px" viewBox="0 0 30 30" version="1.1" xmlns="http://www.w3.org/2000/svg" xmlns:xlink="http://www.w3.org/1999/xlink">
    <title>CacheActive-Light</title>
    <g id="CacheActive-Light" stroke="none" stroke-width="1" fill="none" fill-rule="evenodd">
        <path d="M16.2269904,1 C19.2103977,1 20.9990295,1.402948 22.5475128,2.16296036 L19.4586424,6.57305663 C18.5901638,6.1978103 17.5562272,6 15.8588933,6 L14.1411067,6 C12.1272092,6 11.0472407,6.27847683 10.0694629,6.80139811 C9.09168511,7.32431939 8.32431939,8.09168511 7.80139811,9.06946289 C7.30752802,9.99291968 7.03169633,11.0075281 7.00257265,12.813962 L7,13.1411067 L7,16.8588933 C7,18.8727908 7.27847683,19.9527593 7.80139811,20.9305371 C8.32431939,21.9083149 9.09168511,22.6756806 10.0694629,23.1986019 C10.9929197,23.692472 12.0075281,23.9683037 13.813962,23.9974273 L14.1411067,24 L15.8588933,24 C17.8727908,24 18.9527593,23.7215232 19.9305371,23.1986019 C20.9083149,22.6756806 21.6756806,21.9083149 22.1986019,20.9305371 C22.692472,20.0070803 22.9683037,18.9924719 22.9974273,17.186038 L23,16.8588933 L23,15.462 L27.6516288,8.82032759 C27.8814351,9.88791195 28,11.1546832 28,12.7730096 L28,17.2269904 C28,20.4288844 27.5358719,22.2545989 26.6643365,23.8842285 C25.792801,25.5138581 24.5138581,26.792801 22.8842285,27.6643365 C21.2545989,28.5358719 19.4288844,29 16.2269904,29 L13.7730096,29 C10.5711156,29 8.74540111,28.5358719 7.11577148,27.6643365 C5.48614185,26.792801 4.20719898,25.5138581 3.33566352,23.8842285 C2.46412806,22.2545989 2,20.4288844 2,17.2269904 L2,12.7730096 C2,9.57111559 2.46412806,7.74540111 3.33566352,6.11577148 C4.20719898,4.48614185 5.48614185,3.20719898 7.11577148,2.33566352 C8.74540111,1.46412806 10.5711156,1 13.7730096,1 L16.2269904,1 Z" id="Combined-Shape" fill-opacity="0.75" fill="#FFFFFF"></path>
        <path d="M26.0356276,4.25081874 C26.940438,4.88437378 27.1603339,6.13146534 26.5267788,7.0362757 L16.8906947,20.79803 C16.5407995,21.2977321 16.0037726,21.5885318 15.4406175,21.6420397 C14.7633951,21.7591363 14.0443108,21.52211 13.5706637,20.9576393 L9.07115044,15.5953282 C8.36114685,14.7491789 8.47151478,13.4876677 9.31766411,12.7776641 C10.1638134,12.0676605 11.4253246,12.1780284 12.1353282,13.0241778 L15.0321928,16.4769513 L23.2501707,4.74196996 C23.8837257,3.83715959 25.1308173,3.6172637 26.0356276,4.25081874 Z" id="Combined-Shape" fill="#00AEEF"></path>
    </g>
</svg>